solid OpenSCAD_Model
  facet normal 0 0 -1
    outer loop
      vertex 13.5 11 0
      vertex 9.67661 12.5 0
      vertex 13.5 12.5 0
    endloop
  endfacet
  facet normal 0 0 -1
    outer loop
      vertex 9.30212 11 0
      vertex 9.67661 12.5 0
      vertex 13.5 11 0
    endloop
  endfacet
  facet normal 0 0 -1
    outer loop
      vertex 8.95395 11.1837 0
      vertex 9.67661 12.5 0
      vertex 9.30212 11 0
    endloop
  endfacet
  facet normal -0 0 -1
    outer loop
      vertex 9.67661 12.5 0
      vertex 8.95395 11.1837 0
      vertex 9.34432 12.6474 0
    endloop
  endfacet
  facet normal 0 0 -1
    outer loop
      vertex 8.58156 11.3287 0
      vertex 9.34432 12.6474 0
      vertex 8.95395 11.1837 0
    endloop
  endfacet
  facet normal -0 0 -1
    outer loop
      vertex 9.34432 12.6474 0
      vertex 8.58156 11.3287 0
      vertex 8.96925 12.7793 0
    endloop
  endfacet
  facet normal -0 0 -1
    outer loop
      vertex 8.96925 12.7793 0
      vertex 8.58156 11.3287 0
      vertex 8.58489 12.8809 0
    endloop
  endfacet
  facet normal 0 0 -1
    outer loop
      vertex 8.19507 11.4303 0
      vertex 8.58489 12.8809 0
      vertex 8.58156 11.3287 0
    endloop
  endfacet
  facet normal 0 0 -1
    outer loop
      vertex 8.19507 11.4303 0
      vertex 8.19368 12.9516 0
      vertex 8.58489 12.8809 0
    endloop
  endfacet
  facet normal 0 0 -1
    outer loop
      vertex 7.79951 11.4872 0
      vertex 8.19368 12.9516 0
      vertex 8.19507 11.4303 0
    endloop
  endfacet
  facet normal 0 0 -1
    outer loop
      vertex 7.79951 11.4872 0
      vertex 7.79807 12.9911 0
      vertex 8.19368 12.9516 0
    endloop
  endfacet
  facet normal 0 0 -1
    outer loop
      vertex 7.40005 11.4986 0
      vertex 7.79807 12.9911 0
      vertex 7.79951 11.4872 0
    endloop
  endfacet
  facet normal -0 0 -1
    outer loop
      vertex 7.79807 12.9911 0
      vertex 7.40005 11.4986 0
      vertex 7.40059 12.999 0
    endloop
  endfacet
  facet normal 0 0 -1
    outer loop
      vertex 7.40005 11.4986 0
      vertex 7.00373 12.9753 0
      vertex 7.40059 12.999 0
    endloop
  endfacet
  facet normal 0 0 -1
    outer loop
      vertex 7.0019 11.4644 0
      vertex 7.00373 12.9753 0
      vertex 7.40005 11.4986 0
    endloop
  endfacet
  facet normal 0 0 -1
    outer loop
      vertex 6.61001 12.9202 0
      vertex 7.0019 11.4644 0
      vertex 6.61024 11.385 0
    endloop
  endfacet
  facet normal 0 0 -1
    outer loop
      vertex 7.0019 11.4644 0
      vertex 6.61001 12.9202 0
      vertex 7.00373 12.9753 0
    endloop
  endfacet
  facet normal 0 0 -1
    outer loop
      vertex 5.8419 12.7171 0
      vertex 6.61024 11.385 0
      vertex 6.23017 11.2615 0
    endloop
  endfacet
  facet normal 0 0 -1
    outer loop
      vertex 6.61024 11.385 0
      vertex 6.22192 12.8339 0
      vertex 6.61001 12.9202 0
    endloop
  endfacet
  facet normal 0 0 -1
    outer loop
      vertex 5.47237 12.5704 0
      vertex 6.23017 11.2615 0
      vertex 5.86666 11.0955 0
    endloop
  endfacet
  facet normal 0 0 -1
    outer loop
      vertex 6.61024 11.385 0
      vertex 5.8419 12.7171 0
      vertex 6.22192 12.8339 0
    endloop
  endfacet
  facet normal 0 0 -1
    outer loop
      vertex 5.32928 12.5 0
      vertex 5.86666 11.0955 0
      vertex 5.70827 11 0
    endloop
  endfacet
  facet normal 0 0 -1
    outer loop
      vertex 6.23017 11.2615 0
      vertex 5.47237 12.5704 0
      vertex 5.8419 12.7171 0
    endloop
  endfacet
  facet normal 0 0 -1
    outer loop
      vertex 5.86666 11.0955 0
      vertex 5.32928 12.5 0
      vertex 5.47237 12.5704 0
    endloop
  endfacet
  facet normal 0 0 -1
    outer loop
      vertex 4 11 0
      vertex 5.32928 12.5 0
      vertex 5.70827 11 0
    endloop
  endfacet
  facet normal -0 0 -1
    outer loop
      vertex 5.32928 12.5 0
      vertex 4 11 0
      vertex 4 12.5 0
    endloop
  endfacet
  facet normal -0.92388 -0.382683 0
    outer loop
      vertex 0.200961 0.75 14.5
      vertex 0.0511112 1.11177 24.5
      vertex 0.0511112 1.11177 14.5
    endloop
  endfacet
  facet normal -0.92388 -0.382683 0
    outer loop
      vertex 0.0511112 1.11177 24.5
      vertex 0.200961 0.75 14.5
      vertex 0.200961 0.75 24.5
    endloop
  endfacet
  facet normal -0.991445 -0.130526 0
    outer loop
      vertex 0.0511112 1.11177 14.5
      vertex 0 1.5 24.5
      vertex 0 1.5 14.5
    endloop
  endfacet
  facet normal -0.991445 -0.130526 0
    outer loop
      vertex 0 1.5 24.5
      vertex 0.0511112 1.11177 14.5
      vertex 0.0511112 1.11177 24.5
    endloop
  endfacet
  facet normal -0.382683 -0.92388 0
    outer loop
      vertex 0.75 0.200961 14.5
      vertex 1.11177 0.0511112 24.5
      vertex 0.75 0.200961 24.5
    endloop
  endfacet
  facet normal -0.382683 -0.92388 -0
    outer loop
      vertex 1.11177 0.0511112 24.5
      vertex 0.75 0.200961 14.5
      vertex 1.11177 0.0511112 14.5
    endloop
  endfacet
  facet normal -0.793352 -0.608763 0
    outer loop
      vertex 0.43934 0.43934 14.5
      vertex 0.200961 0.75 24.5
      vertex 0.200961 0.75 14.5
    endloop
  endfacet
  facet normal -0.793352 -0.608763 0
    outer loop
      vertex 0.200961 0.75 24.5
      vertex 0.43934 0.43934 14.5
      vertex 0.43934 0.43934 24.5
    endloop
  endfacet
  facet normal -0 0 1
    outer loop
      vertex 9.67661 12.5 39
      vertex 13.5 11 39
      vertex 13.5 12.5 39
    endloop
  endfacet
  facet normal 0 0 1
    outer loop
      vertex 9.67661 12.5 39
      vertex 9.30212 11 39
      vertex 13.5 11 39
    endloop
  endfacet
  facet normal 0 0 1
    outer loop
      vertex 8.95395 11.1837 39
      vertex 9.67661 12.5 39
      vertex 9.34432 12.6474 39
    endloop
  endfacet
  facet normal 0 0 1
    outer loop
      vertex 8.58156 11.3287 39
      vertex 9.34432 12.6474 39
      vertex 8.96925 12.7793 39
    endloop
  endfacet
  facet normal 0 0 1
    outer loop
      vertex 9.67661 12.5 39
      vertex 8.95395 11.1837 39
      vertex 9.30212 11 39
    endloop
  endfacet
  facet normal 0 0 1
    outer loop
      vertex 8.58156 11.3287 39
      vertex 8.96925 12.7793 39
      vertex 8.58489 12.8809 39
    endloop
  endfacet
  facet normal 0 0 1
    outer loop
      vertex 9.34432 12.6474 39
      vertex 8.58156 11.3287 39
      vertex 8.95395 11.1837 39
    endloop
  endfacet
  facet normal 0 0 1
    outer loop
      vertex 8.58489 12.8809 39
      vertex 8.19507 11.4303 39
      vertex 8.58156 11.3287 39
    endloop
  endfacet
  facet normal 0 0 1
    outer loop
      vertex 8.19368 12.9516 39
      vertex 8.19507 11.4303 39
      vertex 8.58489 12.8809 39
    endloop
  endfacet
  facet normal 0 0 1
    outer loop
      vertex 8.19368 12.9516 39
      vertex 7.79951 11.4872 39
      vertex 8.19507 11.4303 39
    endloop
  endfacet
  facet normal 0 0 1
    outer loop
      vertex 7.79807 12.9911 39
      vertex 7.79951 11.4872 39
      vertex 8.19368 12.9516 39
    endloop
  endfacet
  facet normal 0 0 1
    outer loop
      vertex 7.40005 11.4986 39
      vertex 7.79807 12.9911 39
      vertex 7.40059 12.999 39
    endloop
  endfacet
  facet normal 0 0 1
    outer loop
      vertex 7.79807 12.9911 39
      vertex 7.40005 11.4986 39
      vertex 7.79951 11.4872 39
    endloop
  endfacet
  facet normal -0 0 1
    outer loop
      vertex 7.00373 12.9753 39
      vertex 7.40005 11.4986 39
      vertex 7.40059 12.999 39
    endloop
  endfacet
  facet normal 0 0 1
    outer loop
      vertex 7.00373 12.9753 39
      vertex 7.0019 11.4644 39
      vertex 7.40005 11.4986 39
    endloop
  endfacet
  facet normal -0 0 1
    outer loop
      vertex 6.61001 12.9202 39
      vertex 7.0019 11.4644 39
      vertex 7.00373 12.9753 39
    endloop
  endfacet
  facet normal 0 0 1
    outer loop
      vertex 7.0019 11.4644 39
      vertex 6.61001 12.9202 39
      vertex 6.61024 11.385 39
    endloop
  endfacet
  facet normal -0 0 1
    outer loop
      vertex 6.22192 12.8339 39
      vertex 6.61024 11.385 39
      vertex 6.61001 12.9202 39
    endloop
  endfacet
  facet normal -0 0 1
    outer loop
      vertex 5.8419 12.7171 39
      vertex 6.61024 11.385 39
      vertex 6.22192 12.8339 39
    endloop
  endfacet
  facet normal 0 0 1
    outer loop
      vertex 6.61024 11.385 39
      vertex 5.8419 12.7171 39
      vertex 6.23017 11.2615 39
    endloop
  endfacet
  facet normal -0 0 1
    outer loop
      vertex 5.47237 12.5704 39
      vertex 6.23017 11.2615 39
      vertex 5.8419 12.7171 39
    endloop
  endfacet
  facet normal 0 0 1
    outer loop
      vertex 6.23017 11.2615 39
      vertex 5.47237 12.5704 39
      vertex 5.86666 11.0955 39
    endloop
  endfacet
  facet normal -0 0 1
    outer loop
      vertex 5.32928 12.5 39
      vertex 5.86666 11.0955 39
      vertex 5.47237 12.5704 39
    endloop
  endfacet
  facet normal 0 0 1
    outer loop
      vertex 5.86666 11.0955 39
      vertex 5.32928 12.5 39
      vertex 5.70827 11 39
    endloop
  endfacet
  facet normal 0 0 1
    outer loop
      vertex 4 11 39
      vertex 5.32928 12.5 39
      vertex 4 12.5 39
    endloop
  endfacet
  facet normal 0 0 1
    outer loop
      vertex 5.32928 12.5 39
      vertex 4 11 39
      vertex 5.70827 11 39
    endloop
  endfacet
  facet normal -0.130526 -0.991445 0
    outer loop
      vertex 1.11177 0.0511112 14.5
      vertex 1.5 0 24.5
      vertex 1.11177 0.0511112 24.5
    endloop
  endfacet
  facet normal -0.130526 -0.991445 -0
    outer loop
      vertex 1.5 0 24.5
      vertex 1.11177 0.0511112 14.5
      vertex 1.5 0 14.5
    endloop
  endfacet
  facet normal -0.608763 -0.793352 0
    outer loop
      vertex 0.43934 0.43934 14.5
      vertex 0.75 0.200961 24.5
      vertex 0.43934 0.43934 24.5
    endloop
  endfacet
  facet normal -0.608763 -0.793352 -0
    outer loop
      vertex 0.75 0.200961 24.5
      vertex 0.43934 0.43934 14.5
      vertex 0.75 0.200961 14.5
    endloop
  endfacet
  facet normal -0.130497 0.991449 0
    outer loop
      vertex 1.5 12.5 3.5
      vertex 1.11177 12.4489 35.5
      vertex 1.5 12.5 35.5
    endloop
  endfacet
  facet normal -0.130497 0.991449 0
    outer loop
      vertex 1.11177 12.4489 35.5
      vertex 1.5 12.5 3.5
      vertex 1.11177 12.4489 3.5
    endloop
  endfacet
  facet normal -0.79339 0.608714 0
    outer loop
      vertex 0.200961 11.75 3.5
      vertex 0.43934 12.0607 35.5
      vertex 0.43934 12.0607 3.5
    endloop
  endfacet
  facet normal -0.79339 0.608714 0
    outer loop
      vertex 0.43934 12.0607 35.5
      vertex 0.200961 11.75 3.5
      vertex 0.200961 11.75 35.5
    endloop
  endfacet
  facet normal -0.382792 0.923834 0
    outer loop
      vertex 1.11177 12.4489 3.5
      vertex 0.75 12.299 35.5
      vertex 1.11177 12.4489 35.5
    endloop
  endfacet
  facet normal -0.382792 0.923834 0
    outer loop
      vertex 0.75 12.299 35.5
      vertex 1.11177 12.4489 3.5
      vertex 0.75 12.299 3.5
    endloop
  endfacet
  facet normal -0.923891 0.382656 0
    outer loop
      vertex 0.0511112 11.3882 3.5
      vertex 0.200961 11.75 35.5
      vertex 0.200961 11.75 3.5
    endloop
  endfacet
  facet normal -0.923891 0.382656 0
    outer loop
      vertex 0.200961 11.75 35.5
      vertex 0.0511112 11.3882 3.5
      vertex 0.0511112 11.3882 35.5
    endloop
  endfacet
  facet normal -0.991444 0.130535 0
    outer loop
      vertex 0 11 3.5
      vertex 0.0511112 11.3882 35.5
      vertex 0.0511112 11.3882 3.5
    endloop
  endfacet
  facet normal -0.991444 0.130535 0
    outer loop
      vertex 0.0511112 11.3882 35.5
      vertex 0 11 3.5
      vertex 0 11 35.5
    endloop
  endfacet
  facet normal -0.608636 0.793449 0
    outer loop
      vertex 0.75 12.299 3.5
      vertex 0.43934 12.0607 35.5
      vertex 0.75 12.299 35.5
    endloop
  endfacet
  facet normal -0.608636 0.793449 0
    outer loop
      vertex 0.43934 12.0607 35.5
      vertex 0.75 12.299 3.5
      vertex 0.43934 12.0607 3.5
    endloop
  endfacet
  facet normal 0.991447 0.130507 0
    outer loop
      vertex 19 11 30.5
      vertex 18.9489 11.3882 8.44889
      vertex 18.9489 11.3882 30.5511
    endloop
  endfacet
  facet normal 0.991447 0.130507 0
    outer loop
      vertex 18.9489 11.3882 8.44889
      vertex 19 11 30.5
      vertex 19 11 8.5
    endloop
  endfacet
  facet normal 0.923782 0.382918 0
    outer loop
      vertex 18.9489 11.3882 30.5511
      vertex 18.8832 11.5467 8.38325
      vertex 18.8832 11.5467 30.6168
    endloop
  endfacet
  facet normal 0.923782 0.382918 0
    outer loop
      vertex 18.8832 11.5467 8.38325
      vertex 18.9489 11.3882 30.5511
      vertex 18.9489 11.3882 8.44889
    endloop
  endfacet
  facet normal 0 -1 0
    outer loop
      vertex 1.5 0 24.5
      vertex 14 0 22
      vertex 14 0 24.5
    endloop
  endfacet
  facet normal 0 -1 0
    outer loop
      vertex 14 0 22
      vertex 14 0 17
      vertex 17.5 0 22
    endloop
  endfacet
  facet normal 0 -1 0
    outer loop
      vertex 1.5 0 24.5
      vertex 14 0 17
      vertex 14 0 22
    endloop
  endfacet
  facet normal 0 -1 0
    outer loop
      vertex 1.5 0 14.5
      vertex 14 0 17
      vertex 1.5 0 24.5
    endloop
  endfacet
  facet normal 0 -1 -0
    outer loop
      vertex 14 0 17
      vertex 1.5 0 14.5
      vertex 14 0 14.5
    endloop
  endfacet
  facet normal 0 -1 -0
    outer loop
      vertex 17.5 0 22
      vertex 14 0 17
      vertex 17.5 0 17
    endloop
  endfacet
  facet normal 0 1 0
    outer loop
      vertex 5.32928 12.5 4.5
      vertex 4 12.5 3.5
      vertex 3.5 12.5 4.5
    endloop
  endfacet
  facet normal 0 1 -0
    outer loop
      vertex 5.32928 12.5 0
      vertex 4 12.5 3.5
      vertex 5.32928 12.5 4.5
    endloop
  endfacet
  facet normal 0 1 0
    outer loop
      vertex 4 12.5 3.5
      vertex 5.32928 12.5 0
      vertex 4 12.5 0
    endloop
  endfacet
  facet normal 0 1 0
    outer loop
      vertex 5.32928 12.5 39
      vertex 4 12.5 35.5
      vertex 4 12.5 39
    endloop
  endfacet
  facet normal 0 1 -0
    outer loop
      vertex 5.32928 12.5 34.5
      vertex 4 12.5 35.5
      vertex 5.32928 12.5 39
    endloop
  endfacet
  facet normal 0 1 0
    outer loop
      vertex 3.5 12.5 34.5
      vertex 4 12.5 35.5
      vertex 5.32928 12.5 34.5
    endloop
  endfacet
  facet normal 0 1 0
    outer loop
      vertex 4 12.5 35.5
      vertex 3.5 12.5 34.5
      vertex 1.5 12.5 35.5
    endloop
  endfacet
  facet normal 0 1 -0
    outer loop
      vertex 3.5 12.5 4.5
      vertex 1.5 12.5 35.5
      vertex 3.5 12.5 34.5
    endloop
  endfacet
  facet normal 0 1 0
    outer loop
      vertex 3.5 12.5 4.5
      vertex 1.5 12.5 3.5
      vertex 1.5 12.5 35.5
    endloop
  endfacet
  facet normal 0 1 0
    outer loop
      vertex 1.5 12.5 3.5
      vertex 3.5 12.5 4.5
      vertex 4 12.5 3.5
    endloop
  endfacet
  facet normal 0 1 -0
    outer loop
      vertex 16.5 12.5 33
      vertex 16 12.5 34.5
      vertex 16.5 12.5 36
    endloop
  endfacet
  facet normal 0 1 -0
    outer loop
      vertex 16.5 12.5 6
      vertex 16 12.5 34.5
      vertex 16.5 12.5 33
    endloop
  endfacet
  facet normal 0 1 0
    outer loop
      vertex 16.5 12.5 6
      vertex 16 12.5 4.5
      vertex 16 12.5 34.5
    endloop
  endfacet
  facet normal 0 1 -0
    outer loop
      vertex 16.5 12.5 3
      vertex 16 12.5 4.5
      vertex 16.5 12.5 6
    endloop
  endfacet
  facet normal 0 1 -0
    outer loop
      vertex 16.4743 12.5 2.60842
      vertex 16 12.5 4.5
      vertex 16.5 12.5 3
    endloop
  endfacet
  facet normal 0 1 -0
    outer loop
      vertex 16.3978 12.5 2.22354
      vertex 16 12.5 4.5
      vertex 16.4743 12.5 2.60842
    endloop
  endfacet
  facet normal 0 1 -0
    outer loop
      vertex 16.2716 12.5 1.85195
      vertex 16 12.5 4.5
      vertex 16.3978 12.5 2.22354
    endloop
  endfacet
  facet normal 0 1 -0
    outer loop
      vertex 16.0981 12.5 1.5
      vertex 16 12.5 4.5
      vertex 16.2716 12.5 1.85195
    endloop
  endfacet
  facet normal 0 1 0
    outer loop
      vertex 15.8801 12.5 1.17372
      vertex 16 12.5 4.5
      vertex 16.0981 12.5 1.5
    endloop
  endfacet
  facet normal 0 1 0
    outer loop
      vertex 15.6213 12.5 0.878679
      vertex 16 12.5 4.5
      vertex 15.8801 12.5 1.17372
    endloop
  endfacet
  facet normal 0 1 0
    outer loop
      vertex 15.3263 12.5 0.61994
      vertex 16 12.5 4.5
      vertex 15.6213 12.5 0.878679
    endloop
  endfacet
  facet normal 0 1 0
    outer loop
      vertex 16 12.5 4.5
      vertex 15.3263 12.5 0.61994
      vertex 13.5 12.5 0
    endloop
  endfacet
  facet normal 0 1 0
    outer loop
      vertex 13.5 12.5 0
      vertex 15.3263 12.5 0.61994
      vertex 15 12.5 0.401923
    endloop
  endfacet
  facet normal 0 1 0
    outer loop
      vertex 13.5 12.5 0
      vertex 15 12.5 0.401923
      vertex 14.648 12.5 0.228361
    endloop
  endfacet
  facet normal 0 1 0
    outer loop
      vertex 13.5 12.5 0
      vertex 14.648 12.5 0.228361
      vertex 14.2765 12.5 0.102222
    endloop
  endfacet
  facet normal 0 1 0
    outer loop
      vertex 13.5 12.5 0
      vertex 14.2765 12.5 0.102222
      vertex 13.8916 12.5 0.0256653
    endloop
  endfacet
  facet normal 0 1 0
    outer loop
      vertex 16 12.5 4.5
      vertex 13.5 12.5 0
      vertex 9.67661 12.5 4.5
    endloop
  endfacet
  facet normal 0 1 0
    outer loop
      vertex 9.67661 12.5 4.5
      vertex 13.5 12.5 0
      vertex 9.67661 12.5 0
    endloop
  endfacet
  facet normal 0 1 0
    outer loop
      vertex 16 12.5 34.5
      vertex 13.5 12.5 39
      vertex 13.8916 12.5 38.9743
    endloop
  endfacet
  facet normal 0 1 0
    outer loop
      vertex 16 12.5 34.5
      vertex 13.8916 12.5 38.9743
      vertex 14.2765 12.5 38.8978
    endloop
  endfacet
  facet normal 0 1 0
    outer loop
      vertex 16 12.5 34.5
      vertex 14.2765 12.5 38.8978
      vertex 14.648 12.5 38.7716
    endloop
  endfacet
  facet normal 0 1 0
    outer loop
      vertex 16 12.5 34.5
      vertex 14.648 12.5 38.7716
      vertex 15 12.5 38.5981
    endloop
  endfacet
  facet normal 0 1 0
    outer loop
      vertex 16 12.5 34.5
      vertex 15 12.5 38.5981
      vertex 15.3263 12.5 38.3801
    endloop
  endfacet
  facet normal 0 1 0
    outer loop
      vertex 16 12.5 34.5
      vertex 15.3263 12.5 38.3801
      vertex 15.6213 12.5 38.1213
    endloop
  endfacet
  facet normal 0 1 0
    outer loop
      vertex 16 12.5 34.5
      vertex 15.6213 12.5 38.1213
      vertex 15.8801 12.5 37.8263
    endloop
  endfacet
  facet normal 0 1 -0
    outer loop
      vertex 16 12.5 34.5
      vertex 15.8801 12.5 37.8263
      vertex 16.0981 12.5 37.5
    endloop
  endfacet
  facet normal 0 1 0
    outer loop
      vertex 16 12.5 34.5
      vertex 16.0981 12.5 37.5
      vertex 16.2716 12.5 37.148
    endloop
  endfacet
  facet normal 0 1 0
    outer loop
      vertex 16 12.5 34.5
      vertex 16.2716 12.5 37.148
      vertex 16.3978 12.5 36.7765
    endloop
  endfacet
  facet normal 0 1 0
    outer loop
      vertex 16 12.5 34.5
      vertex 16.3978 12.5 36.7765
      vertex 16.4743 12.5 36.3916
    endloop
  endfacet
  facet normal 0 1 0
    outer loop
      vertex 16 12.5 34.5
      vertex 16.4743 12.5 36.3916
      vertex 16.5 12.5 36
    endloop
  endfacet
  facet normal 0 1 0
    outer loop
      vertex 13.5 12.5 39
      vertex 16 12.5 34.5
      vertex 9.67661 12.5 34.5
    endloop
  endfacet
  facet normal 0 1 0
    outer loop
      vertex 13.5 12.5 39
      vertex 9.67661 12.5 34.5
      vertex 9.67661 12.5 39
    endloop
  endfacet
  facet normal -1 0 0
    outer loop
      vertex 0 1.5 14.5
      vertex 0 3 24.5
      vertex 0 3 14.5
    endloop
  endfacet
  facet normal -1 -0 0
    outer loop
      vertex 0 3 24.5
      vertex 0 1.5 14.5
      vertex 0 1.5 24.5
    endloop
  endfacet
  facet normal -1 0 0
    outer loop
      vertex 0 3 9.5
      vertex 0 11 3.5
      vertex 0 9 3.5
    endloop
  endfacet
  facet normal -1 0 0
    outer loop
      vertex 0 11 3.5
      vertex 0 3 14.5
      vertex 0 11 35.5
    endloop
  endfacet
  facet normal -1 0 0
    outer loop
      vertex 0 11 3.5
      vertex 0 3 9.5
      vertex 0 3 14.5
    endloop
  endfacet
  facet normal -1 0 0
    outer loop
      vertex 0 3 24.5
      vertex 0 11 35.5
      vertex 0 3 14.5
    endloop
  endfacet
  facet normal -1 0 0
    outer loop
      vertex 0 3 29.5
      vertex 0 11 35.5
      vertex 0 3 24.5
    endloop
  endfacet
  facet normal -1 -0 0
    outer loop
      vertex 0 11 35.5
      vertex 0 3 29.5
      vertex 0 9 35.5
    endloop
  endfacet
  facet normal -0.0596126 0.998222 0
    outer loop
      vertex 7.40059 12.999 0
      vertex 7.00373 12.9753 4.5
      vertex 7.40059 12.999 4.5
    endloop
  endfacet
  facet normal -0.0596126 0.998222 0
    outer loop
      vertex 7.00373 12.9753 4.5
      vertex 7.40059 12.999 0
      vertex 7.00373 12.9753 0
    endloop
  endfacet
  facet normal -0.0596126 0.998222 0
    outer loop
      vertex 7.40059 12.999 34.5
      vertex 7.00373 12.9753 39
      vertex 7.40059 12.999 39
    endloop
  endfacet
  facet normal -0.0596126 0.998222 0
    outer loop
      vertex 7.00373 12.9753 39
      vertex 7.40059 12.999 34.5
      vertex 7.00373 12.9753 34.5
    endloop
  endfacet
  facet normal -0.44146 0.897281 0
    outer loop
      vertex 5.47237 12.5704 0
      vertex 5.32928 12.5 4.5
      vertex 5.47237 12.5704 4.5
    endloop
  endfacet
  facet normal -0.44146 0.897281 0
    outer loop
      vertex 5.32928 12.5 4.5
      vertex 5.47237 12.5704 0
      vertex 5.32928 12.5 0
    endloop
  endfacet
  facet normal -0.44146 0.897281 0
    outer loop
      vertex 5.47237 12.5704 34.5
      vertex 5.32928 12.5 39
      vertex 5.47237 12.5704 39
    endloop
  endfacet
  facet normal -0.44146 0.897281 0
    outer loop
      vertex 5.32928 12.5 39
      vertex 5.47237 12.5704 34.5
      vertex 5.32928 12.5 34.5
    endloop
  endfacet
  facet normal 0.331752 0.943367 -0
    outer loop
      vertex 9.34432 12.6474 0
      vertex 8.96925 12.7793 4.5
      vertex 9.34432 12.6474 4.5
    endloop
  endfacet
  facet normal 0.331752 0.943367 0
    outer loop
      vertex 8.96925 12.7793 4.5
      vertex 9.34432 12.6474 0
      vertex 8.96925 12.7793 0
    endloop
  endfacet
  facet normal 0.331752 0.943367 -0
    outer loop
      vertex 9.34432 12.6474 34.5
      vertex 8.96925 12.7793 39
      vertex 9.34432 12.6474 39
    endloop
  endfacet
  facet normal 0.331752 0.943367 0
    outer loop
      vertex 8.96925 12.7793 39
      vertex 9.34432 12.6474 34.5
      vertex 8.96925 12.7793 34.5
    endloop
  endfacet
  facet normal -0.217069 0.976156 0
    outer loop
      vertex 6.61001 12.9202 0
      vertex 6.22192 12.8339 4.5
      vertex 6.61001 12.9202 4.5
    endloop
  endfacet
  facet normal -0.217069 0.976156 0
    outer loop
      vertex 6.22192 12.8339 4.5
      vertex 6.61001 12.9202 0
      vertex 6.22192 12.8339 0
    endloop
  endfacet
  facet normal -0.217069 0.976156 0
    outer loop
      vertex 6.61001 12.9202 34.5
      vertex 6.22192 12.8339 39
      vertex 6.61001 12.9202 39
    endloop
  endfacet
  facet normal -0.217069 0.976156 0
    outer loop
      vertex 6.22192 12.8339 39
      vertex 6.61001 12.9202 34.5
      vertex 6.22192 12.8339 34.5
    endloop
  endfacet
  facet normal 0.0993518 0.995052 -0
    outer loop
      vertex 8.19368 12.9516 0
      vertex 7.79807 12.9911 4.5
      vertex 8.19368 12.9516 4.5
    endloop
  endfacet
  facet normal 0.0993518 0.995052 0
    outer loop
      vertex 7.79807 12.9911 4.5
      vertex 8.19368 12.9516 0
      vertex 7.79807 12.9911 0
    endloop
  endfacet
  facet normal 0.0993518 0.995052 -0
    outer loop
      vertex 8.19368 12.9516 34.5
      vertex 7.79807 12.9911 39
      vertex 8.19368 12.9516 39
    endloop
  endfacet
  facet normal 0.0993518 0.995052 0
    outer loop
      vertex 7.79807 12.9911 39
      vertex 8.19368 12.9516 34.5
      vertex 7.79807 12.9911 34.5
    endloop
  endfacet
  facet normal 0.255558 0.966794 -0
    outer loop
      vertex 8.96925 12.7793 0
      vertex 8.58489 12.8809 4.5
      vertex 8.96925 12.7793 4.5
    endloop
  endfacet
  facet normal 0.255558 0.966794 0
    outer loop
      vertex 8.58489 12.8809 4.5
      vertex 8.96925 12.7793 0
      vertex 8.58489 12.8809 0
    endloop
  endfacet
  facet normal 0.255558 0.966794 -0
    outer loop
      vertex 8.96925 12.7793 34.5
      vertex 8.58489 12.8809 39
      vertex 8.96925 12.7793 39
    endloop
  endfacet
  facet normal 0.255558 0.966794 0
    outer loop
      vertex 8.58489 12.8809 39
      vertex 8.96925 12.7793 34.5
      vertex 8.58489 12.8809 34.5
    endloop
  endfacet
  facet normal 0.0198713 0.999803 -0
    outer loop
      vertex 7.79807 12.9911 0
      vertex 7.40059 12.999 4.5
      vertex 7.79807 12.9911 4.5
    endloop
  endfacet
  facet normal 0.0198713 0.999803 0
    outer loop
      vertex 7.40059 12.999 4.5
      vertex 7.79807 12.9911 0
      vertex 7.40059 12.999 0
    endloop
  endfacet
  facet normal 0.0198713 0.999803 -0
    outer loop
      vertex 7.79807 12.9911 34.5
      vertex 7.40059 12.999 39
      vertex 7.79807 12.9911 39
    endloop
  endfacet
  facet normal 0.0198713 0.999803 0
    outer loop
      vertex 7.40059 12.999 39
      vertex 7.79807 12.9911 34.5
      vertex 7.40059 12.999 34.5
    endloop
  endfacet
  facet normal 0.405485 0.914102 -0
    outer loop
      vertex 9.67661 12.5 0
      vertex 9.34432 12.6474 4.5
      vertex 9.67661 12.5 4.5
    endloop
  endfacet
  facet normal 0.405485 0.914102 0
    outer loop
      vertex 9.34432 12.6474 4.5
      vertex 9.67661 12.5 0
      vertex 9.34432 12.6474 0
    endloop
  endfacet
  facet normal 0.405485 0.914102 -0
    outer loop
      vertex 9.67661 12.5 34.5
      vertex 9.34432 12.6474 39
      vertex 9.67661 12.5 39
    endloop
  endfacet
  facet normal 0.405485 0.914102 0
    outer loop
      vertex 9.34432 12.6474 39
      vertex 9.67661 12.5 34.5
      vertex 9.34432 12.6474 34.5
    endloop
  endfacet
  facet normal -0.293789 0.95587 0
    outer loop
      vertex 6.22192 12.8339 0
      vertex 5.8419 12.7171 4.5
      vertex 6.22192 12.8339 4.5
    endloop
  endfacet
  facet normal -0.293789 0.95587 0
    outer loop
      vertex 5.8419 12.7171 4.5
      vertex 6.22192 12.8339 0
      vertex 5.8419 12.7171 0
    endloop
  endfacet
  facet normal -0.293789 0.95587 0
    outer loop
      vertex 6.22192 12.8339 34.5
      vertex 5.8419 12.7171 39
      vertex 6.22192 12.8339 39
    endloop
  endfacet
  facet normal -0.293789 0.95587 0
    outer loop
      vertex 5.8419 12.7171 39
      vertex 6.22192 12.8339 34.5
      vertex 5.8419 12.7171 34.5
    endloop
  endfacet
  facet normal -0.138597 0.990349 0
    outer loop
      vertex 7.00373 12.9753 0
      vertex 6.61001 12.9202 4.5
      vertex 7.00373 12.9753 4.5
    endloop
  endfacet
  facet normal -0.138597 0.990349 0
    outer loop
      vertex 6.61001 12.9202 4.5
      vertex 7.00373 12.9753 0
      vertex 6.61001 12.9202 0
    endloop
  endfacet
  facet normal -0.138597 0.990349 0
    outer loop
      vertex 7.00373 12.9753 34.5
      vertex 6.61001 12.9202 39
      vertex 7.00373 12.9753 39
    endloop
  endfacet
  facet normal -0.138597 0.990349 0
    outer loop
      vertex 6.61001 12.9202 39
      vertex 7.00373 12.9753 34.5
      vertex 6.61001 12.9202 34.5
    endloop
  endfacet
  facet normal 0.177841 0.984059 -0
    outer loop
      vertex 8.58489 12.8809 0
      vertex 8.19368 12.9516 4.5
      vertex 8.58489 12.8809 4.5
    endloop
  endfacet
  facet normal 0.177841 0.984059 0
    outer loop
      vertex 8.19368 12.9516 4.5
      vertex 8.58489 12.8809 0
      vertex 8.19368 12.9516 0
    endloop
  endfacet
  facet normal 0.177841 0.984059 -0
    outer loop
      vertex 8.58489 12.8809 34.5
      vertex 8.19368 12.9516 39
      vertex 8.58489 12.8809 39
    endloop
  endfacet
  facet normal 0.177841 0.984059 0
    outer loop
      vertex 8.19368 12.9516 39
      vertex 8.58489 12.8809 34.5
      vertex 8.19368 12.9516 34.5
    endloop
  endfacet
  facet normal -0.368978 0.929438 0
    outer loop
      vertex 5.8419 12.7171 0
      vertex 5.47237 12.5704 4.5
      vertex 5.8419 12.7171 4.5
    endloop
  endfacet
  facet normal -0.368978 0.929438 0
    outer loop
      vertex 5.47237 12.5704 4.5
      vertex 5.8419 12.7171 0
      vertex 5.47237 12.5704 0
    endloop
  endfacet
  facet normal -0.368978 0.929438 0
    outer loop
      vertex 5.8419 12.7171 34.5
      vertex 5.47237 12.5704 39
      vertex 5.8419 12.7171 39
    endloop
  endfacet
  facet normal -0.368978 0.929438 0
    outer loop
      vertex 5.47237 12.5704 39
      vertex 5.8419 12.7171 34.5
      vertex 5.47237 12.5704 34.5
    endloop
  endfacet
  facet normal -1 0 0
    outer loop
      vertex 3.5 12.5 4.5
      vertex 3.5 14 34.5
      vertex 3.5 14 4.5
    endloop
  endfacet
  facet normal -1 -0 0
    outer loop
      vertex 3.5 14 34.5
      vertex 3.5 12.5 4.5
      vertex 3.5 12.5 34.5
    endloop
  endfacet
  facet normal 0 0 1
    outer loop
      vertex 16 14 34.5
      vertex 9.67661 12.5 34.5
      vertex 16 12.5 34.5
    endloop
  endfacet
  facet normal 0 0 1
    outer loop
      vertex 16 14 34.5
      vertex 9.34432 12.6474 34.5
      vertex 9.67661 12.5 34.5
    endloop
  endfacet
  facet normal 0 0 1
    outer loop
      vertex 16 14 34.5
      vertex 8.96925 12.7793 34.5
      vertex 9.34432 12.6474 34.5
    endloop
  endfacet
  facet normal 0 0 1
    outer loop
      vertex 16 14 34.5
      vertex 8.58489 12.8809 34.5
      vertex 8.96925 12.7793 34.5
    endloop
  endfacet
  facet normal 0 0 1
    outer loop
      vertex 16 14 34.5
      vertex 8.19368 12.9516 34.5
      vertex 8.58489 12.8809 34.5
    endloop
  endfacet
  facet normal 0 0 1
    outer loop
      vertex 16 14 34.5
      vertex 7.79807 12.9911 34.5
      vertex 8.19368 12.9516 34.5
    endloop
  endfacet
  facet normal -0 0 1
    outer loop
      vertex 3.5 14 34.5
      vertex 7.79807 12.9911 34.5
      vertex 16 14 34.5
    endloop
  endfacet
  facet normal 0 0 1
    outer loop
      vertex 7.79807 12.9911 34.5
      vertex 3.5 14 34.5
      vertex 7.40059 12.999 34.5
    endloop
  endfacet
  facet normal 0 0 1
    outer loop
      vertex 7.40059 12.999 34.5
      vertex 3.5 14 34.5
      vertex 7.00373 12.9753 34.5
    endloop
  endfacet
  facet normal 0 0 1
    outer loop
      vertex 3.5 14 34.5
      vertex 6.61001 12.9202 34.5
      vertex 7.00373 12.9753 34.5
    endloop
  endfacet
  facet normal 0 0 1
    outer loop
      vertex 3.5 14 34.5
      vertex 6.22192 12.8339 34.5
      vertex 6.61001 12.9202 34.5
    endloop
  endfacet
  facet normal 0 0 1
    outer loop
      vertex 3.5 14 34.5
      vertex 5.8419 12.7171 34.5
      vertex 6.22192 12.8339 34.5
    endloop
  endfacet
  facet normal 0 0 1
    outer loop
      vertex 3.5 14 34.5
      vertex 5.47237 12.5704 34.5
      vertex 5.8419 12.7171 34.5
    endloop
  endfacet
  facet normal 0 0 1
    outer loop
      vertex 3.5 14 34.5
      vertex 5.32928 12.5 34.5
      vertex 5.47237 12.5704 34.5
    endloop
  endfacet
  facet normal 0 0 1
    outer loop
      vertex 5.32928 12.5 34.5
      vertex 3.5 14 34.5
      vertex 3.5 12.5 34.5
    endloop
  endfacet
  facet normal 1 -0 0
    outer loop
      vertex 16 12.5 34.5
      vertex 16 14 4.5
      vertex 16 14 34.5
    endloop
  endfacet
  facet normal 1 0 0
    outer loop
      vertex 16 14 4.5
      vertex 16 12.5 34.5
      vertex 16 12.5 4.5
    endloop
  endfacet
  facet normal 0 0 -1
    outer loop
      vertex 9.67661 12.5 4.5
      vertex 16 14 4.5
      vertex 16 12.5 4.5
    endloop
  endfacet
  facet normal 0 0 -1
    outer loop
      vertex 9.34432 12.6474 4.5
      vertex 16 14 4.5
      vertex 9.67661 12.5 4.5
    endloop
  endfacet
  facet normal 0 0 -1
    outer loop
      vertex 8.96925 12.7793 4.5
      vertex 16 14 4.5
      vertex 9.34432 12.6474 4.5
    endloop
  endfacet
  facet normal 0 0 -1
    outer loop
      vertex 8.58489 12.8809 4.5
      vertex 16 14 4.5
      vertex 8.96925 12.7793 4.5
    endloop
  endfacet
  facet normal 0 0 -1
    outer loop
      vertex 8.19368 12.9516 4.5
      vertex 16 14 4.5
      vertex 8.58489 12.8809 4.5
    endloop
  endfacet
  facet normal 0 0 -1
    outer loop
      vertex 7.79807 12.9911 4.5
      vertex 16 14 4.5
      vertex 8.19368 12.9516 4.5
    endloop
  endfacet
  facet normal 0 0 -1
    outer loop
      vertex 3.5 14 4.5
      vertex 7.79807 12.9911 4.5
      vertex 7.40059 12.999 4.5
    endloop
  endfacet
  facet normal 0 0 -1
    outer loop
      vertex 3.5 14 4.5
      vertex 7.40059 12.999 4.5
      vertex 7.00373 12.9753 4.5
    endloop
  endfacet
  facet normal 0 0 -1
    outer loop
      vertex 3.5 14 4.5
      vertex 5.32928 12.5 4.5
      vertex 3.5 12.5 4.5
    endloop
  endfacet
  facet normal 0 0 -1
    outer loop
      vertex 5.32928 12.5 4.5
      vertex 3.5 14 4.5
      vertex 5.47237 12.5704 4.5
    endloop
  endfacet
  facet normal 0 0 -1
    outer loop
      vertex 5.47237 12.5704 4.5
      vertex 3.5 14 4.5
      vertex 5.8419 12.7171 4.5
    endloop
  endfacet
  facet normal 0 0 -1
    outer loop
      vertex 5.8419 12.7171 4.5
      vertex 3.5 14 4.5
      vertex 6.22192 12.8339 4.5
    endloop
  endfacet
  facet normal 0 0 -1
    outer loop
      vertex 6.22192 12.8339 4.5
      vertex 3.5 14 4.5
      vertex 6.61001 12.9202 4.5
    endloop
  endfacet
  facet normal 0 0 -1
    outer loop
      vertex 7.79807 12.9911 4.5
      vertex 3.5 14 4.5
      vertex 16 14 4.5
    endloop
  endfacet
  facet normal 0 0 -1
    outer loop
      vertex 6.61001 12.9202 4.5
      vertex 3.5 14 4.5
      vertex 7.00373 12.9753 4.5
    endloop
  endfacet
  facet normal 0 1 -0
    outer loop
      vertex 16 14 4.5
      vertex 3.5 14 34.5
      vertex 16 14 34.5
    endloop
  endfacet
  facet normal 0 1 0
    outer loop
      vertex 3.5 14 34.5
      vertex 16 14 4.5
      vertex 3.5 14 4.5
    endloop
  endfacet
  facet normal 1 -0 0
    outer loop
      vertex 16.5 11 6
      vertex 16.5 12.5 3
      vertex 16.5 12.5 6
    endloop
  endfacet
  facet normal 1 0 0
    outer loop
      vertex 16.5 12.5 3
      vertex 16.5 11 6
      vertex 16.5 11 3
    endloop
  endfacet
  facet normal 0 -1 0
    outer loop
      vertex 1.5 11 35.5
      vertex 1.5 11 3.5
      vertex 4 11 35.5
    endloop
  endfacet
  facet normal 0 -1 0
    outer loop
      vertex 4 11 35.5
      vertex 5.70827 11 39
      vertex 4 11 39
    endloop
  endfacet
  facet normal 0 -1 0
    outer loop
      vertex 4 11 3.5
      vertex 4 11 35.5
      vertex 1.5 11 3.5
    endloop
  endfacet
  facet normal 0 -1 0
    outer loop
      vertex 4 11 35.5
      vertex 4 11 3.5
      vertex 5.70827 11 39
    endloop
  endfacet
  facet normal 0 -1 0
    outer loop
      vertex 5.70827 11 0
      vertex 4 11 3.5
      vertex 4 11 0
    endloop
  endfacet
  facet normal 0 -1 0
    outer loop
      vertex 4 11 3.5
      vertex 5.70827 11 0
      vertex 5.70827 11 39
    endloop
  endfacet
  facet normal 0 -1 0
    outer loop
      vertex 16.5 11 33
      vertex 13.5 11 39
      vertex 9.30212 11 39
    endloop
  endfacet
  facet normal -0 -1 -0
    outer loop
      vertex 16.5 11 36
      vertex 13.5 11 39
      vertex 16.5 11 33
    endloop
  endfacet
  facet normal 0 -1 0
    outer loop
      vertex 13.8916 11 38.9743
      vertex 16.5 11 36
      vertex 14.2765 11 38.8978
    endloop
  endfacet
  facet normal 0 -1 0
    outer loop
      vertex 14.2765 11 38.8978
      vertex 16.5 11 36
      vertex 14.648 11 38.7716
    endloop
  endfacet
  facet normal 0 -1 0
    outer loop
      vertex 14.648 11 38.7716
      vertex 16.5 11 36
      vertex 15 11 38.5981
    endloop
  endfacet
  facet normal 0 -1 0
    outer loop
      vertex 15 11 38.5981
      vertex 16.5 11 36
      vertex 15.3263 11 38.3801
    endloop
  endfacet
  facet normal 0 -1 0
    outer loop
      vertex 15.3263 11 38.3801
      vertex 16.5 11 36
      vertex 15.6213 11 38.1213
    endloop
  endfacet
  facet normal 0 -1 0
    outer loop
      vertex 15.6213 11 38.1213
      vertex 16.5 11 36
      vertex 15.8801 11 37.8263
    endloop
  endfacet
  facet normal 0 -1 0
    outer loop
      vertex 15.8801 11 37.8263
      vertex 16.5 11 36
      vertex 16.0981 11 37.5
    endloop
  endfacet
  facet normal 0 -1 0
    outer loop
      vertex 16.0981 11 37.5
      vertex 16.5 11 36
      vertex 16.2716 11 37.148
    endloop
  endfacet
  facet normal 0 -1 0
    outer loop
      vertex 16.2716 11 37.148
      vertex 16.5 11 36
      vertex 16.3978 11 36.7765
    endloop
  endfacet
  facet normal 0 -1 0
    outer loop
      vertex 16.3978 11 36.7765
      vertex 16.5 11 36
      vertex 16.4743 11 36.3916
    endloop
  endfacet
  facet normal 0 -1 0
    outer loop
      vertex 13.5 11 39
      vertex 16.5 11 36
      vertex 13.8916 11 38.9743
    endloop
  endfacet
  facet normal 0 -1 0
    outer loop
      vertex 16.5 11 6
      vertex 16.5 11 33
      vertex 9.30212 11 39
    endloop
  endfacet
  facet normal 0 -1 0
    outer loop
      vertex 16.5 11 33
      vertex 16.5 11 6
      vertex 19 11 30.5
    endloop
  endfacet
  facet normal 0 -1 -0
    outer loop
      vertex 19 11 30.5
      vertex 16.5 11 6
      vertex 19 11 8.5
    endloop
  endfacet
  facet normal 0 -1 0
    outer loop
      vertex 9.30212 11 0
      vertex 16.5 11 6
      vertex 9.30212 11 39
    endloop
  endfacet
  facet normal 0 -1 0
    outer loop
      vertex 13.5 11 0
      vertex 16.5 11 6
      vertex 9.30212 11 0
    endloop
  endfacet
  facet normal 0 -1 -0
    outer loop
      vertex 16.5 11 6
      vertex 13.5 11 0
      vertex 16.5 11 3
    endloop
  endfacet
  facet normal 0 -1 0
    outer loop
      vertex 16.5 11 3
      vertex 13.5 11 0
      vertex 16.4743 11 2.60842
    endloop
  endfacet
  facet normal 0 -1 0
    outer loop
      vertex 16.4743 11 2.60842
      vertex 13.5 11 0
      vertex 16.3978 11 2.22354
    endloop
  endfacet
  facet normal 0 -1 0
    outer loop
      vertex 16.3978 11 2.22354
      vertex 13.5 11 0
      vertex 16.2716 11 1.85195
    endloop
  endfacet
  facet normal 0 -1 0
    outer loop
      vertex 16.2716 11 1.85195
      vertex 13.5 11 0
      vertex 16.0981 11 1.5
    endloop
  endfacet
  facet normal 0 -1 0
    outer loop
      vertex 16.0981 11 1.5
      vertex 13.5 11 0
      vertex 15.8801 11 1.17372
    endloop
  endfacet
  facet normal 0 -1 0
    outer loop
      vertex 15.8801 11 1.17372
      vertex 13.5 11 0
      vertex 15.6213 11 0.878679
    endloop
  endfacet
  facet normal 0 -1 0
    outer loop
      vertex 15.6213 11 0.878679
      vertex 13.5 11 0
      vertex 15.3263 11 0.61994
    endloop
  endfacet
  facet normal 0 -1 0
    outer loop
      vertex 15.3263 11 0.61994
      vertex 13.5 11 0
      vertex 15 11 0.401923
    endloop
  endfacet
  facet normal 0 -1 0
    outer loop
      vertex 14.648 11 0.228361
      vertex 13.5 11 0
      vertex 14.2765 11 0.102222
    endloop
  endfacet
  facet normal 0 -1 0
    outer loop
      vertex 15 11 0.401923
      vertex 13.5 11 0
      vertex 14.648 11 0.228361
    endloop
  endfacet
  facet normal 0 -1 0
    outer loop
      vertex 14.2765 11 0.102222
      vertex 13.5 11 0
      vertex 13.8916 11 0.0256653
    endloop
  endfacet
  facet normal 0.321512 0 -0.946905
    outer loop
      vertex 14.2765 11 0.102222
      vertex 14.648 12.5 0.228361
      vertex 14.648 11 0.228361
    endloop
  endfacet
  facet normal 0.321512 0 -0.946905
    outer loop
      vertex 14.648 12.5 0.228361
      vertex 14.2765 11 0.102222
      vertex 14.2765 12.5 0.102222
    endloop
  endfacet
  facet normal 0.896936 0 -0.44216
    outer loop
      vertex 16.2716 11 1.85195
      vertex 16.0981 12.5 1.5
      vertex 16.2716 12.5 1.85195
    endloop
  endfacet
  facet normal 0.896936 0 -0.44216
    outer loop
      vertex 16.0981 12.5 1.5
      vertex 16.2716 11 1.85195
      vertex 16.0981 11 1.5
    endloop
  endfacet
  facet normal 0.946882 0 -0.321582
    outer loop
      vertex 16.3978 11 2.22354
      vertex 16.2716 12.5 1.85195
      vertex 16.3978 12.5 2.22354
    endloop
  endfacet
  facet normal 0.946882 0 -0.321582
    outer loop
      vertex 16.2716 12.5 1.85195
      vertex 16.3978 11 2.22354
      vertex 16.2716 11 1.85195
    endloop
  endfacet
  facet normal 0.0653993 0 -0.997859
    outer loop
      vertex 13.5 11 0
      vertex 13.8916 12.5 0.0256653
      vertex 13.8916 11 0.0256653
    endloop
  endfacet
  facet normal 0.0653993 0 -0.997859
    outer loop
      vertex 13.8916 12.5 0.0256653
      vertex 13.5 11 0
      vertex 13.5 12.5 0
    endloop
  endfacet
  facet normal 0.195079 0 -0.980788
    outer loop
      vertex 13.8916 11 0.0256653
      vertex 14.2765 12.5 0.102222
      vertex 14.2765 11 0.102222
    endloop
  endfacet
  facet normal 0.195079 0 -0.980788
    outer loop
      vertex 14.2765 12.5 0.102222
      vertex 13.8916 11 0.0256653
      vertex 13.8916 12.5 0.0256653
    endloop
  endfacet
  facet normal 0.555553 0 -0.831481
    outer loop
      vertex 15 11 0.401923
      vertex 15.3263 12.5 0.61994
      vertex 15.3263 11 0.61994
    endloop
  endfacet
  facet normal 0.555553 0 -0.831481
    outer loop
      vertex 15.3263 12.5 0.61994
      vertex 15 11 0.401923
      vertex 15 12.5 0.401923
    endloop
  endfacet
  facet normal 0.751769 0 -0.659426
    outer loop
      vertex 15.8801 11 1.17372
      vertex 15.6213 12.5 0.878679
      vertex 15.8801 12.5 1.17372
    endloop
  endfacet
  facet normal 0.751769 0 -0.659426
    outer loop
      vertex 15.6213 12.5 0.878679
      vertex 15.8801 11 1.17372
      vertex 15.6213 11 0.878679
    endloop
  endfacet
  facet normal 0.831485 0 -0.555547
    outer loop
      vertex 16.0981 11 1.5
      vertex 15.8801 12.5 1.17372
      vertex 16.0981 12.5 1.5
    endloop
  endfacet
  facet normal 0.831485 0 -0.555547
    outer loop
      vertex 15.8801 12.5 1.17372
      vertex 16.0981 11 1.5
      vertex 15.8801 11 1.17372
    endloop
  endfacet
  facet normal 0.980813 0 -0.19495
    outer loop
      vertex 16.4743 11 2.60842
      vertex 16.3978 12.5 2.22354
      vertex 16.4743 12.5 2.60842
    endloop
  endfacet
  facet normal 0.980813 0 -0.19495
    outer loop
      vertex 16.3978 12.5 2.22354
      vertex 16.4743 11 2.60842
      vertex 16.3978 11 2.22354
    endloop
  endfacet
  facet normal 0.997853 0 -0.0654906
    outer loop
      vertex 16.5 11 3
      vertex 16.4743 12.5 2.60842
      vertex 16.5 12.5 3
    endloop
  endfacet
  facet normal 0.997853 0 -0.0654906
    outer loop
      vertex 16.4743 12.5 2.60842
      vertex 16.5 11 3
      vertex 16.4743 11 2.60842
    endloop
  endfacet
  facet normal 0.442237 0 -0.896898
    outer loop
      vertex 14.648 11 0.228361
      vertex 15 12.5 0.401923
      vertex 15 11 0.401923
    endloop
  endfacet
  facet normal 0.442237 0 -0.896898
    outer loop
      vertex 15 12.5 0.401923
      vertex 14.648 11 0.228361
      vertex 14.648 12.5 0.228361
    endloop
  endfacet
  facet normal 0.65939 0 -0.751801
    outer loop
      vertex 15.3263 11 0.61994
      vertex 15.6213 12.5 0.878679
      vertex 15.6213 11 0.878679
    endloop
  endfacet
  facet normal 0.65939 0 -0.751801
    outer loop
      vertex 15.6213 12.5 0.878679
      vertex 15.3263 11 0.61994
      vertex 15.3263 12.5 0.61994
    endloop
  endfacet
  facet normal 1 -0 0
    outer loop
      vertex 16.5 11 36
      vertex 16.5 12.5 33
      vertex 16.5 12.5 36
    endloop
  endfacet
  facet normal 1 0 0
    outer loop
      vertex 16.5 12.5 33
      vertex 16.5 11 36
      vertex 16.5 11 33
    endloop
  endfacet
  facet normal 0.659478 0 0.751724
    outer loop
      vertex 15.3263 12.5 38.3801
      vertex 15.6213 11 38.1213
      vertex 15.6213 12.5 38.1213
    endloop
  endfacet
  facet normal 0.659478 0 0.751724
    outer loop
      vertex 15.6213 11 38.1213
      vertex 15.3263 12.5 38.3801
      vertex 15.3263 11 38.3801
    endloop
  endfacet
  facet normal 0.946858 -0 0.321651
    outer loop
      vertex 16.2716 11 37.148
      vertex 16.3978 12.5 36.7765
      vertex 16.2716 12.5 37.148
    endloop
  endfacet
  facet normal 0.946858 0 0.321651
    outer loop
      vertex 16.3978 12.5 36.7765
      vertex 16.2716 11 37.148
      vertex 16.3978 11 36.7765
    endloop
  endfacet
  facet normal 0.44211 0 0.896961
    outer loop
      vertex 14.648 12.5 38.7716
      vertex 15 11 38.5981
      vertex 15 12.5 38.5981
    endloop
  endfacet
  facet normal 0.44211 0 0.896961
    outer loop
      vertex 15 11 38.5981
      vertex 14.648 12.5 38.7716
      vertex 14.648 11 38.7716
    endloop
  endfacet
  facet normal 0.751724 -0 0.659478
    outer loop
      vertex 15.6213 11 38.1213
      vertex 15.8801 12.5 37.8263
      vertex 15.6213 12.5 38.1213
    endloop
  endfacet
  facet normal 0.751724 0 0.659478
    outer loop
      vertex 15.8801 12.5 37.8263
      vertex 15.6213 11 38.1213
      vertex 15.8801 11 37.8263
    endloop
  endfacet
  facet normal 0.896961 -0 0.44211
    outer loop
      vertex 16.0981 11 37.5
      vertex 16.2716 12.5 37.148
      vertex 16.0981 12.5 37.5
    endloop
  endfacet
  facet normal 0.896961 0 0.44211
    outer loop
      vertex 16.2716 12.5 37.148
      vertex 16.0981 11 37.5
      vertex 16.2716 11 37.148
    endloop
  endfacet
  facet normal 0.980815 -0 0.19494
    outer loop
      vertex 16.3978 11 36.7765
      vertex 16.4743 12.5 36.3916
      vertex 16.3978 12.5 36.7765
    endloop
  endfacet
  facet normal 0.980815 0 0.19494
    outer loop
      vertex 16.4743 12.5 36.3916
      vertex 16.3978 11 36.7765
      vertex 16.4743 11 36.3916
    endloop
  endfacet
  facet normal 0.555523 0 0.831501
    outer loop
      vertex 15 12.5 38.5981
      vertex 15.3263 11 38.3801
      vertex 15.3263 12.5 38.3801
    endloop
  endfacet
  facet normal 0.555523 0 0.831501
    outer loop
      vertex 15.3263 11 38.3801
      vertex 15 12.5 38.5981
      vertex 15 11 38.5981
    endloop
  endfacet
  facet normal 0.321651 0 0.946858
    outer loop
      vertex 14.2765 12.5 38.8978
      vertex 14.648 11 38.7716
      vertex 14.648 12.5 38.7716
    endloop
  endfacet
  facet normal 0.321651 0 0.946858
    outer loop
      vertex 14.648 11 38.7716
      vertex 14.2765 12.5 38.8978
      vertex 14.2765 11 38.8978
    endloop
  endfacet
  facet normal 0.0654873 0 0.997853
    outer loop
      vertex 13.5 12.5 39
      vertex 13.8916 11 38.9743
      vertex 13.8916 12.5 38.9743
    endloop
  endfacet
  facet normal 0.0654873 0 0.997853
    outer loop
      vertex 13.8916 11 38.9743
      vertex 13.5 12.5 39
      vertex 13.5 11 39
    endloop
  endfacet
  facet normal 0.831501 -0 0.555523
    outer loop
      vertex 15.8801 11 37.8263
      vertex 16.0981 12.5 37.5
      vertex 15.8801 12.5 37.8263
    endloop
  endfacet
  facet normal 0.831501 0 0.555523
    outer loop
      vertex 16.0981 12.5 37.5
      vertex 15.8801 11 37.8263
      vertex 16.0981 11 37.5
    endloop
  endfacet
  facet normal 0.997853 -0 0.0654873
    outer loop
      vertex 16.4743 11 36.3916
      vertex 16.5 12.5 36
      vertex 16.4743 12.5 36.3916
    endloop
  endfacet
  facet normal 0.997853 0 0.0654873
    outer loop
      vertex 16.5 12.5 36
      vertex 16.4743 11 36.3916
      vertex 16.5 11 36
    endloop
  endfacet
  facet normal 0.19494 0 0.980815
    outer loop
      vertex 13.8916 12.5 38.9743
      vertex 14.2765 11 38.8978
      vertex 14.2765 12.5 38.8978
    endloop
  endfacet
  facet normal 0.19494 0 0.980815
    outer loop
      vertex 14.2765 11 38.8978
      vertex 13.8916 12.5 38.9743
      vertex 13.8916 11 38.9743
    endloop
  endfacet
  facet normal 1 -0 0
    outer loop
      vertex 1.5 1.5 24.5
      vertex 1.5 3 14.5
      vertex 1.5 3 24.5
    endloop
  endfacet
  facet normal 1 0 0
    outer loop
      vertex 1.5 3 14.5
      vertex 1.5 1.5 24.5
      vertex 1.5 1.5 14.5
    endloop
  endfacet
  facet normal 1 0 0
    outer loop
      vertex 1.5 3 29.5
      vertex 1.5 11 35.5
      vertex 1.5 9 35.5
    endloop
  endfacet
  facet normal 1 0 0
    outer loop
      vertex 1.5 11 35.5
      vertex 1.5 3 24.5
      vertex 1.5 11 3.5
    endloop
  endfacet
  facet normal 1 0 0
    outer loop
      vertex 1.5 11 35.5
      vertex 1.5 3 29.5
      vertex 1.5 3 24.5
    endloop
  endfacet
  facet normal 1 -0 0
    outer loop
      vertex 1.5 3 14.5
      vertex 1.5 11 3.5
      vertex 1.5 3 24.5
    endloop
  endfacet
  facet normal 1 -0 0
    outer loop
      vertex 1.5 3 9.5
      vertex 1.5 11 3.5
      vertex 1.5 3 14.5
    endloop
  endfacet
  facet normal 1 0 0
    outer loop
      vertex 1.5 11 3.5
      vertex 1.5 3 9.5
      vertex 1.5 9 3.5
    endloop
  endfacet
  facet normal -1 0 0
    outer loop
      vertex 15.5 1.5 17
      vertex 15.5 4 22
      vertex 15.5 4 17
    endloop
  endfacet
  facet normal -1 -0 0
    outer loop
      vertex 15.5 4 22
      vertex 15.5 1.5 17
      vertex 15.5 1.5 22
    endloop
  endfacet
  facet normal 0 1 0
    outer loop
      vertex 15.5 1.5 22
      vertex 15.5 1.5 17
      vertex 14 1.5 22
    endloop
  endfacet
  facet normal 0 1 -0
    outer loop
      vertex 14 1.5 22
      vertex 1.5 1.5 24.5
      vertex 14 1.5 24.5
    endloop
  endfacet
  facet normal 0 1 0
    outer loop
      vertex 14 1.5 17
      vertex 14 1.5 22
      vertex 15.5 1.5 17
    endloop
  endfacet
  facet normal 0 1 0
    outer loop
      vertex 14 1.5 22
      vertex 14 1.5 17
      vertex 1.5 1.5 24.5
    endloop
  endfacet
  facet normal 0 1 0
    outer loop
      vertex 1.5 1.5 14.5
      vertex 14 1.5 17
      vertex 14 1.5 14.5
    endloop
  endfacet
  facet normal 0 1 0
    outer loop
      vertex 14 1.5 17
      vertex 1.5 1.5 14.5
      vertex 1.5 1.5 24.5
    endloop
  endfacet
  facet normal 1 -0 0
    outer loop
      vertex 17.5 0 22
      vertex 17.5 3 17
      vertex 17.5 3 22
    endloop
  endfacet
  facet normal 1 0 0
    outer loop
      vertex 17.5 3 17
      vertex 17.5 0 22
      vertex 17.5 0 17
    endloop
  endfacet
  facet normal 0 1 -0
    outer loop
      vertex 16.5 4 17
      vertex 15.5 4 22
      vertex 16.5 4 22
    endloop
  endfacet
  facet normal 0 1 0
    outer loop
      vertex 15.5 4 22
      vertex 16.5 4 17
      vertex 15.5 4 17
    endloop
  endfacet
  facet normal -0.0285269 -0.999593 0
    outer loop
      vertex 7.40005 11.4986 0
      vertex 7.79951 11.4872 39
      vertex 7.40005 11.4986 39
    endloop
  endfacet
  facet normal -0.0285269 -0.999593 -0
    outer loop
      vertex 7.79951 11.4872 39
      vertex 7.40005 11.4986 0
      vertex 7.79951 11.4872 0
    endloop
  endfacet
  facet normal 0.415395 -0.909641 0
    outer loop
      vertex 5.86666 11.0955 0
      vertex 6.23017 11.2615 39
      vertex 5.86666 11.0955 39
    endloop
  endfacet
  facet normal 0.415395 -0.909641 0
    outer loop
      vertex 6.23017 11.2615 39
      vertex 5.86666 11.0955 0
      vertex 6.23017 11.2615 0
    endloop
  endfacet
  facet normal -0.362841 -0.931851 0
    outer loop
      vertex 8.58156 11.3287 0
      vertex 8.95395 11.1837 39
      vertex 8.58156 11.3287 39
    endloop
  endfacet
  facet normal -0.362841 -0.931851 -0
    outer loop
      vertex 8.95395 11.1837 39
      vertex 8.58156 11.3287 0
      vertex 8.95395 11.1837 0
    endloop
  endfacet
  facet normal 0.198685 -0.980063 0
    outer loop
      vertex 6.61024 11.385 0
      vertex 7.0019 11.4644 39
      vertex 6.61024 11.385 39
    endloop
  endfacet
  facet normal 0.198685 -0.980063 0
    outer loop
      vertex 7.0019 11.4644 39
      vertex 6.61024 11.385 0
      vertex 7.0019 11.4644 0
    endloop
  endfacet
  facet normal -0.254241 -0.967141 0
    outer loop
      vertex 8.19507 11.4303 0
      vertex 8.58156 11.3287 39
      vertex 8.19507 11.4303 39
    endloop
  endfacet
  facet normal -0.254241 -0.967141 -0
    outer loop
      vertex 8.58156 11.3287 39
      vertex 8.19507 11.4303 0
      vertex 8.58156 11.3287 0
    endloop
  endfacet
  facet normal -0.142381 -0.989812 0
    outer loop
      vertex 7.79951 11.4872 0
      vertex 8.19507 11.4303 39
      vertex 7.79951 11.4872 39
    endloop
  endfacet
  facet normal -0.142381 -0.989812 -0
    outer loop
      vertex 8.19507 11.4303 39
      vertex 7.79951 11.4872 0
      vertex 8.19507 11.4303 0
    endloop
  endfacet
  facet normal -0.466647 -0.884444 0
    outer loop
      vertex 8.95395 11.1837 0
      vertex 9.30212 11 39
      vertex 8.95395 11.1837 39
    endloop
  endfacet
  facet normal -0.466647 -0.884444 -0
    outer loop
      vertex 9.30212 11 39
      vertex 8.95395 11.1837 0
      vertex 9.30212 11 0
    endloop
  endfacet
  facet normal 0.516347 -0.856379 0
    outer loop
      vertex 5.70827 11 0
      vertex 5.86666 11.0955 39
      vertex 5.70827 11 39
    endloop
  endfacet
  facet normal 0.516347 -0.856379 0
    outer loop
      vertex 5.86666 11.0955 39
      vertex 5.70827 11 0
      vertex 5.86666 11.0955 0
    endloop
  endfacet
  facet normal 0.309035 -0.951051 0
    outer loop
      vertex 6.23017 11.2615 0
      vertex 6.61024 11.385 39
      vertex 6.23017 11.2615 39
    endloop
  endfacet
  facet normal 0.309035 -0.951051 0
    outer loop
      vertex 6.61024 11.385 39
      vertex 6.23017 11.2615 0
      vertex 6.61024 11.385 0
    endloop
  endfacet
  facet normal 0.0855821 -0.996331 0
    outer loop
      vertex 7.0019 11.4644 0
      vertex 7.40005 11.4986 39
      vertex 7.0019 11.4644 39
    endloop
  endfacet
  facet normal 0.0855821 -0.996331 0
    outer loop
      vertex 7.40005 11.4986 39
      vertex 7.0019 11.4644 0
      vertex 7.40005 11.4986 0
    endloop
  endfacet
  facet normal 0.707107 0.707107 0
    outer loop
      vertex 17.5 3 22
      vertex 16.5 4 17
      vertex 16.5 4 22
    endloop
  endfacet
  facet normal 0.707107 0.707107 0
    outer loop
      vertex 16.5 4 17
      vertex 17.5 3 22
      vertex 17.5 3 17
    endloop
  endfacet
  facet normal 0.371397 0.928474 -0
    outer loop
      vertex 18.8832 11.5467 8.38325
      vertex 16.5 12.5 33
      vertex 18.8832 11.5467 30.6168
    endloop
  endfacet
  facet normal 0.371397 0.928474 0
    outer loop
      vertex 16.5 12.5 33
      vertex 18.8832 11.5467 8.38325
      vertex 16.5 12.5 6
    endloop
  endfacet
  facet normal 0.706601 -0.000151358 -0.707612
    outer loop
      vertex 19 11 8.5
      vertex 18.8832 11.5467 8.38325
      vertex 18.9489 11.3882 8.44889
    endloop
  endfacet
  facet normal 0.707107 6.46705e-05 -0.707107
    outer loop
      vertex 18.8832 11.5467 8.38325
      vertex 19 11 8.5
      vertex 16.5 11 6
    endloop
  endfacet
  facet normal 0.707114 0 -0.707099
    outer loop
      vertex 18.8832 11.5467 8.38325
      vertex 16.5 11 6
      vertex 16.5 12.5 6
    endloop
  endfacet
  facet normal 0.707107 -0 0.707107
    outer loop
      vertex 16.5 11 33
      vertex 18.8832 11.5467 30.6168
      vertex 16.5 12.5 33
    endloop
  endfacet
  facet normal 0.707107 0 0.707107
    outer loop
      vertex 19 11 30.5
      vertex 18.8832 11.5467 30.6168
      vertex 16.5 11 33
    endloop
  endfacet
  facet normal 0.707107 0 0.707107
    outer loop
      vertex 18.8832 11.5467 30.6168
      vertex 19 11 30.5
      vertex 18.9489 11.3882 30.5511
    endloop
  endfacet
  facet normal 0 0 -1
    outer loop
      vertex 0 11 3.5
      vertex 1.5 11 3.5
      vertex 1.5 9 3.5
    endloop
  endfacet
  facet normal 0 -0 -1
    outer loop
      vertex 0.0511112 11.3882 3.5
      vertex 1.5 11 3.5
      vertex 0 11 3.5
    endloop
  endfacet
  facet normal 0 0 -1
    outer loop
      vertex 1.5 11 3.5
      vertex 1.11177 12.4489 3.5
      vertex 1.5 12.5 3.5
    endloop
  endfacet
  facet normal 0 0 -1
    outer loop
      vertex 1.5 11 3.5
      vertex 0.75 12.299 3.5
      vertex 1.11177 12.4489 3.5
    endloop
  endfacet
  facet normal 0 0 -1
    outer loop
      vertex 1.5 11 3.5
      vertex 0.43934 12.0607 3.5
      vertex 0.75 12.299 3.5
    endloop
  endfacet
  facet normal 0 0 -1
    outer loop
      vertex 1.5 11 3.5
      vertex 0.200961 11.75 3.5
      vertex 0.43934 12.0607 3.5
    endloop
  endfacet
  facet normal 0 0 -1
    outer loop
      vertex 0 11 3.5
      vertex 1.5 9 3.5
      vertex 0 9 3.5
    endloop
  endfacet
  facet normal 0 0 -1
    outer loop
      vertex 1.5 11 3.5
      vertex 0.0511112 11.3882 3.5
      vertex 0.200961 11.75 3.5
    endloop
  endfacet
  facet normal 0 0 -1
    outer loop
      vertex 1.5 11 3.5
      vertex 4 12.5 3.5
      vertex 4 11 3.5
    endloop
  endfacet
  facet normal -0 0 -1
    outer loop
      vertex 4 12.5 3.5
      vertex 1.5 11 3.5
      vertex 1.5 12.5 3.5
    endloop
  endfacet
  facet normal -1 0 0
    outer loop
      vertex 4 11 0
      vertex 4 12.5 3.5
      vertex 4 12.5 0
    endloop
  endfacet
  facet normal -1 -0 0
    outer loop
      vertex 4 12.5 3.5
      vertex 4 11 0
      vertex 4 11 3.5
    endloop
  endfacet
  facet normal -1 0 0
    outer loop
      vertex 4 11 35.5
      vertex 4 12.5 39
      vertex 4 12.5 35.5
    endloop
  endfacet
  facet normal -1 -0 0
    outer loop
      vertex 4 12.5 39
      vertex 4 11 35.5
      vertex 4 11 39
    endloop
  endfacet
  facet normal -0 0 1
    outer loop
      vertex 1.5 12.5 35.5
      vertex 4 11 35.5
      vertex 4 12.5 35.5
    endloop
  endfacet
  facet normal 0 0 1
    outer loop
      vertex 1.5 12.5 35.5
      vertex 1.5 11 35.5
      vertex 4 11 35.5
    endloop
  endfacet
  facet normal -0 0 1
    outer loop
      vertex 1.11177 12.4489 35.5
      vertex 1.5 11 35.5
      vertex 1.5 12.5 35.5
    endloop
  endfacet
  facet normal -0 0 1
    outer loop
      vertex 0.75 12.299 35.5
      vertex 1.5 11 35.5
      vertex 1.11177 12.4489 35.5
    endloop
  endfacet
  facet normal -0 0 1
    outer loop
      vertex 0.43934 12.0607 35.5
      vertex 1.5 11 35.5
      vertex 0.75 12.299 35.5
    endloop
  endfacet
  facet normal -0 0 1
    outer loop
      vertex 0.200961 11.75 35.5
      vertex 1.5 11 35.5
      vertex 0.43934 12.0607 35.5
    endloop
  endfacet
  facet normal -0 0 1
    outer loop
      vertex 0.0511112 11.3882 35.5
      vertex 1.5 11 35.5
      vertex 0.200961 11.75 35.5
    endloop
  endfacet
  facet normal 0 0 1
    outer loop
      vertex 1.5 11 35.5
      vertex 0.0511112 11.3882 35.5
      vertex 0 11 35.5
    endloop
  endfacet
  facet normal 0 0 1
    outer loop
      vertex 1.5 11 35.5
      vertex 0 11 35.5
      vertex 1.5 9 35.5
    endloop
  endfacet
  facet normal 0 0 1
    outer loop
      vertex 1.5 9 35.5
      vertex 0 11 35.5
      vertex 0 9 35.5
    endloop
  endfacet
  facet normal 0 -0.707107 -0.707107
    outer loop
      vertex 0 9 3.5
      vertex 1.5 3 9.5
      vertex 0 3 9.5
    endloop
  endfacet
  facet normal 0 -0.707107 -0.707107
    outer loop
      vertex 1.5 3 9.5
      vertex 0 9 3.5
      vertex 1.5 9 3.5
    endloop
  endfacet
  facet normal 0 -0.707107 0.707107
    outer loop
      vertex 0 3 29.5
      vertex 1.5 9 35.5
      vertex 0 9 35.5
    endloop
  endfacet
  facet normal 0 -0.707107 0.707107
    outer loop
      vertex 1.5 9 35.5
      vertex 0 3 29.5
      vertex 1.5 3 29.5
    endloop
  endfacet
  facet normal 0 0 -1
    outer loop
      vertex 1.5 0 14.5
      vertex 14 1.5 14.5
      vertex 14 0 14.5
    endloop
  endfacet
  facet normal 0 0 -1
    outer loop
      vertex 1.5 0 14.5
      vertex 1.5 1.5 14.5
      vertex 14 1.5 14.5
    endloop
  endfacet
  facet normal 0 0 -1
    outer loop
      vertex 1.11177 0.0511112 14.5
      vertex 1.5 1.5 14.5
      vertex 1.5 0 14.5
    endloop
  endfacet
  facet normal 0 0 -1
    outer loop
      vertex 0.75 0.200961 14.5
      vertex 1.5 1.5 14.5
      vertex 1.11177 0.0511112 14.5
    endloop
  endfacet
  facet normal 0 0 -1
    outer loop
      vertex 0.43934 0.43934 14.5
      vertex 1.5 1.5 14.5
      vertex 0.75 0.200961 14.5
    endloop
  endfacet
  facet normal 0 0 -1
    outer loop
      vertex 0.200961 0.75 14.5
      vertex 1.5 1.5 14.5
      vertex 0.43934 0.43934 14.5
    endloop
  endfacet
  facet normal 0 0 -1
    outer loop
      vertex 0.0511112 1.11177 14.5
      vertex 1.5 1.5 14.5
      vertex 0.200961 0.75 14.5
    endloop
  endfacet
  facet normal 0 0 -1
    outer loop
      vertex 0 1.5 14.5
      vertex 1.5 1.5 14.5
      vertex 0.0511112 1.11177 14.5
    endloop
  endfacet
  facet normal 0 0 -1
    outer loop
      vertex 1.5 1.5 14.5
      vertex 0 1.5 14.5
      vertex 1.5 3 14.5
    endloop
  endfacet
  facet normal -0 0 -1
    outer loop
      vertex 1.5 3 14.5
      vertex 0 1.5 14.5
      vertex 0 3 14.5
    endloop
  endfacet
  facet normal 0 -1 0
    outer loop
      vertex 0 3 9.5
      vertex 1.5 3 14.5
      vertex 0 3 14.5
    endloop
  endfacet
  facet normal 0 -1 -0
    outer loop
      vertex 1.5 3 14.5
      vertex 0 3 9.5
      vertex 1.5 3 9.5
    endloop
  endfacet
  facet normal 0 0 1
    outer loop
      vertex 0 1.5 24.5
      vertex 1.5 1.5 24.5
      vertex 1.5 3 24.5
    endloop
  endfacet
  facet normal 0 0 1
    outer loop
      vertex 1.5 1.5 24.5
      vertex 1.11177 0.0511112 24.5
      vertex 1.5 0 24.5
    endloop
  endfacet
  facet normal 0 0 1
    outer loop
      vertex 1.5 1.5 24.5
      vertex 0.75 0.200961 24.5
      vertex 1.11177 0.0511112 24.5
    endloop
  endfacet
  facet normal 0 0 1
    outer loop
      vertex 1.5 1.5 24.5
      vertex 0.43934 0.43934 24.5
      vertex 0.75 0.200961 24.5
    endloop
  endfacet
  facet normal 0 0 1
    outer loop
      vertex 1.5 1.5 24.5
      vertex 0.200961 0.75 24.5
      vertex 0.43934 0.43934 24.5
    endloop
  endfacet
  facet normal 0 0 1
    outer loop
      vertex 1.5 1.5 24.5
      vertex 0.0511112 1.11177 24.5
      vertex 0.200961 0.75 24.5
    endloop
  endfacet
  facet normal 0 0 1
    outer loop
      vertex 0 1.5 24.5
      vertex 1.5 3 24.5
      vertex 0 3 24.5
    endloop
  endfacet
  facet normal 0 0 1
    outer loop
      vertex 1.5 1.5 24.5
      vertex 0 1.5 24.5
      vertex 0.0511112 1.11177 24.5
    endloop
  endfacet
  facet normal -0 0 1
    outer loop
      vertex 1.5 1.5 24.5
      vertex 14 0 24.5
      vertex 14 1.5 24.5
    endloop
  endfacet
  facet normal 0 0 1
    outer loop
      vertex 14 0 24.5
      vertex 1.5 1.5 24.5
      vertex 1.5 0 24.5
    endloop
  endfacet
  facet normal 0 -1 0
    outer loop
      vertex 0 3 24.5
      vertex 1.5 3 29.5
      vertex 0 3 29.5
    endloop
  endfacet
  facet normal 0 -1 -0
    outer loop
      vertex 1.5 3 29.5
      vertex 0 3 24.5
      vertex 1.5 3 24.5
    endloop
  endfacet
  facet normal 1 -0 0
    outer loop
      vertex 14 0 17
      vertex 14 1.5 14.5
      vertex 14 1.5 17
    endloop
  endfacet
  facet normal 1 0 0
    outer loop
      vertex 14 1.5 14.5
      vertex 14 0 17
      vertex 14 0 14.5
    endloop
  endfacet
  facet normal 0 0 -1
    outer loop
      vertex 15.5 1.5 17
      vertex 17.5 3 17
      vertex 17.5 0 17
    endloop
  endfacet
  facet normal -0 0 -1
    outer loop
      vertex 17.5 3 17
      vertex 15.5 1.5 17
      vertex 16.5 4 17
    endloop
  endfacet
  facet normal 0 0 -1
    outer loop
      vertex 14 0 17
      vertex 15.5 1.5 17
      vertex 17.5 0 17
    endloop
  endfacet
  facet normal -0 0 -1
    outer loop
      vertex 15.5 1.5 17
      vertex 14 0 17
      vertex 14 1.5 17
    endloop
  endfacet
  facet normal -0 0 -1
    outer loop
      vertex 16.5 4 17
      vertex 15.5 1.5 17
      vertex 15.5 4 17
    endloop
  endfacet
  facet normal 1 -0 0
    outer loop
      vertex 14 0 24.5
      vertex 14 1.5 22
      vertex 14 1.5 24.5
    endloop
  endfacet
  facet normal 1 0 0
    outer loop
      vertex 14 1.5 22
      vertex 14 0 24.5
      vertex 14 0 22
    endloop
  endfacet
  facet normal 0 0 1
    outer loop
      vertex 15.5 1.5 22
      vertex 17.5 3 22
      vertex 16.5 4 22
    endloop
  endfacet
  facet normal 0 0 1
    outer loop
      vertex 15.5 1.5 22
      vertex 16.5 4 22
      vertex 15.5 4 22
    endloop
  endfacet
  facet normal 0 0 1
    outer loop
      vertex 17.5 3 22
      vertex 15.5 1.5 22
      vertex 17.5 0 22
    endloop
  endfacet
  facet normal 0 0 1
    outer loop
      vertex 14 0 22
      vertex 15.5 1.5 22
      vertex 14 1.5 22
    endloop
  endfacet
  facet normal 0 0 1
    outer loop
      vertex 15.5 1.5 22
      vertex 14 0 22
      vertex 17.5 0 22
    endloop
  endfacet
endsolid OpenSCAD_Model
