solid OpenSCAD_Model
  facet normal 0 0 -1
    outer loop
      vertex 16 10 0
      vertex 9.49418 11 0
      vertex 16 11 0
    endloop
  endfacet
  facet normal 0 0 -1
    outer loop
      vertex 9.13824 10 0
      vertex 9.49418 11 0
      vertex 16 10 0
    endloop
  endfacet
  facet normal 0 0 -1
    outer loop
      vertex 8.99396 10.1273 0
      vertex 9.49418 11 0
      vertex 9.13824 10 0
    endloop
  endfacet
  facet normal -0 0 -1
    outer loop
      vertex 9.49418 11 0
      vertex 8.99396 10.1273 0
      vertex 9.39046 11.0799 0
    endloop
  endfacet
  facet normal 0 0 -1
    outer loop
      vertex 8.67018 10.3601 0
      vertex 9.39046 11.0799 0
      vertex 8.99396 10.1273 0
    endloop
  endfacet
  facet normal -0 0 -1
    outer loop
      vertex 9.39046 11.0799 0
      vertex 8.67018 10.3601 0
      vertex 9.05718 11.2966 0
    endloop
  endfacet
  facet normal 0 0 -1
    outer loop
      vertex 8.32484 10.5595 0
      vertex 9.05718 11.2966 0
      vertex 8.67018 10.3601 0
    endloop
  endfacet
  facet normal -0 0 -1
    outer loop
      vertex 9.05718 11.2966 0
      vertex 8.32484 10.5595 0
      vertex 8.70773 11.4862 0
    endloop
  endfacet
  facet normal 0 0 -1
    outer loop
      vertex 7.96136 10.7235 0
      vertex 8.70773 11.4862 0
      vertex 8.32484 10.5595 0
    endloop
  endfacet
  facet normal -0 0 -1
    outer loop
      vertex 8.70773 11.4862 0
      vertex 7.96136 10.7235 0
      vertex 8.34432 11.6474 0
    endloop
  endfacet
  facet normal -0 0 -1
    outer loop
      vertex 8.34432 11.6474 0
      vertex 7.96136 10.7235 0
      vertex 7.96925 11.7793 0
    endloop
  endfacet
  facet normal 0 0 -1
    outer loop
      vertex 7.58336 10.8505 0
      vertex 7.96925 11.7793 0
      vertex 7.96136 10.7235 0
    endloop
  endfacet
  facet normal -0 0 -1
    outer loop
      vertex 7.96925 11.7793 0
      vertex 7.58336 10.8505 0
      vertex 7.58489 11.8809 0
    endloop
  endfacet
  facet normal 0 0 -1
    outer loop
      vertex 7.19459 10.9392 0
      vertex 7.58489 11.8809 0
      vertex 7.58336 10.8505 0
    endloop
  endfacet
  facet normal 0 0 -1
    outer loop
      vertex 7.19459 10.9392 0
      vertex 7.19368 11.9516 0
      vertex 7.58489 11.8809 0
    endloop
  endfacet
  facet normal 0 0 -1
    outer loop
      vertex 6.79892 10.9888 0
      vertex 7.19368 11.9516 0
      vertex 7.19459 10.9392 0
    endloop
  endfacet
  facet normal 0 0 -1
    outer loop
      vertex 6.79892 10.9888 0
      vertex 6.79807 11.9911 0
      vertex 7.19368 11.9516 0
    endloop
  endfacet
  facet normal 0 0 -1
    outer loop
      vertex 6.40028 10.9988 0
      vertex 6.79807 11.9911 0
      vertex 6.79892 10.9888 0
    endloop
  endfacet
  facet normal -0 0 -1
    outer loop
      vertex 6.79807 11.9911 0
      vertex 6.40028 10.9988 0
      vertex 6.40059 11.999 0
    endloop
  endfacet
  facet normal 0 0 -1
    outer loop
      vertex 6.40028 10.9988 0
      vertex 6.00373 11.9753 0
      vertex 6.40059 11.999 0
    endloop
  endfacet
  facet normal 0 0 -1
    outer loop
      vertex 6.00262 10.969 0
      vertex 6.00373 11.9753 0
      vertex 6.40028 10.9988 0
    endloop
  endfacet
  facet normal 0 0 -1
    outer loop
      vertex 6.00262 10.969 0
      vertex 5.61001 11.9202 0
      vertex 6.00373 11.9753 0
    endloop
  endfacet
  facet normal 0 0 -1
    outer loop
      vertex 5.60992 10.8997 0
      vertex 5.61001 11.9202 0
      vertex 6.00262 10.969 0
    endloop
  endfacet
  facet normal 0 0 -1
    outer loop
      vertex 5.22192 11.8339 0
      vertex 5.60992 10.8997 0
      vertex 5.22605 10.7917 0
    endloop
  endfacet
  facet normal 0 0 -1
    outer loop
      vertex 5.60992 10.8997 0
      vertex 5.22192 11.8339 0
      vertex 5.61001 11.9202 0
    endloop
  endfacet
  facet normal 0 0 -1
    outer loop
      vertex 4.8419 11.7171 0
      vertex 5.22605 10.7917 0
      vertex 4.85485 10.646 0
    endloop
  endfacet
  facet normal 0 0 -1
    outer loop
      vertex 5.22605 10.7917 0
      vertex 4.8419 11.7171 0
      vertex 5.22192 11.8339 0
    endloop
  endfacet
  facet normal 0 0 -1
    outer loop
      vertex 4.11566 11.3949 0
      vertex 4.85485 10.646 0
      vertex 4.5 10.4641 0
    endloop
  endfacet
  facet normal 0 0 -1
    outer loop
      vertex 4.85485 10.646 0
      vertex 4.47237 11.5704 0
      vertex 4.8419 11.7171 0
    endloop
  endfacet
  facet normal 0 0 -1
    outer loop
      vertex 4 11.326 0
      vertex 4.5 10.4641 0
      vertex 4.16502 10.2478 0
    endloop
  endfacet
  facet normal 0 0 -1
    outer loop
      vertex 4.85485 10.646 0
      vertex 4.11566 11.3949 0
      vertex 4.47237 11.5704 0
    endloop
  endfacet
  facet normal 0 0 -1
    outer loop
      vertex 4 11.326 0
      vertex 4.16502 10.2478 0
      vertex 4 10.1161 0
    endloop
  endfacet
  facet normal 0 0 -1
    outer loop
      vertex 4.5 10.4641 0
      vertex 4 11.326 0
      vertex 4.11566 11.3949 0
    endloop
  endfacet
  facet normal -0 0 1
    outer loop
      vertex 9.49418 11 39
      vertex 16 10 39
      vertex 16 11 39
    endloop
  endfacet
  facet normal 0 0 1
    outer loop
      vertex 9.49418 11 39
      vertex 9.13824 10 39
      vertex 16 10 39
    endloop
  endfacet
  facet normal 0 0 1
    outer loop
      vertex 8.99396 10.1273 39
      vertex 9.49418 11 39
      vertex 9.39046 11.0799 39
    endloop
  endfacet
  facet normal 0 0 1
    outer loop
      vertex 8.67018 10.3601 39
      vertex 9.39046 11.0799 39
      vertex 9.05718 11.2966 39
    endloop
  endfacet
  facet normal 0 0 1
    outer loop
      vertex 9.49418 11 39
      vertex 8.99396 10.1273 39
      vertex 9.13824 10 39
    endloop
  endfacet
  facet normal 0 0 1
    outer loop
      vertex 8.32484 10.5595 39
      vertex 9.05718 11.2966 39
      vertex 8.70773 11.4862 39
    endloop
  endfacet
  facet normal 0 0 1
    outer loop
      vertex 9.39046 11.0799 39
      vertex 8.67018 10.3601 39
      vertex 8.99396 10.1273 39
    endloop
  endfacet
  facet normal 0 0 1
    outer loop
      vertex 7.96136 10.7235 39
      vertex 8.70773 11.4862 39
      vertex 8.34432 11.6474 39
    endloop
  endfacet
  facet normal 0 0 1
    outer loop
      vertex 9.05718 11.2966 39
      vertex 8.32484 10.5595 39
      vertex 8.67018 10.3601 39
    endloop
  endfacet
  facet normal 0 0 1
    outer loop
      vertex 7.96136 10.7235 39
      vertex 8.34432 11.6474 39
      vertex 7.96925 11.7793 39
    endloop
  endfacet
  facet normal 0 0 1
    outer loop
      vertex 8.70773 11.4862 39
      vertex 7.96136 10.7235 39
      vertex 8.32484 10.5595 39
    endloop
  endfacet
  facet normal 0 0 1
    outer loop
      vertex 7.58336 10.8505 39
      vertex 7.96925 11.7793 39
      vertex 7.58489 11.8809 39
    endloop
  endfacet
  facet normal 0 0 1
    outer loop
      vertex 7.96925 11.7793 39
      vertex 7.58336 10.8505 39
      vertex 7.96136 10.7235 39
    endloop
  endfacet
  facet normal 0 0 1
    outer loop
      vertex 7.58489 11.8809 39
      vertex 7.19459 10.9392 39
      vertex 7.58336 10.8505 39
    endloop
  endfacet
  facet normal 0 0 1
    outer loop
      vertex 7.19368 11.9516 39
      vertex 7.19459 10.9392 39
      vertex 7.58489 11.8809 39
    endloop
  endfacet
  facet normal 0 0 1
    outer loop
      vertex 7.19368 11.9516 39
      vertex 6.79892 10.9888 39
      vertex 7.19459 10.9392 39
    endloop
  endfacet
  facet normal 0 0 1
    outer loop
      vertex 6.79807 11.9911 39
      vertex 6.79892 10.9888 39
      vertex 7.19368 11.9516 39
    endloop
  endfacet
  facet normal 0 0 1
    outer loop
      vertex 6.40028 10.9988 39
      vertex 6.79807 11.9911 39
      vertex 6.40059 11.999 39
    endloop
  endfacet
  facet normal 0 0 1
    outer loop
      vertex 6.79807 11.9911 39
      vertex 6.40028 10.9988 39
      vertex 6.79892 10.9888 39
    endloop
  endfacet
  facet normal -0 0 1
    outer loop
      vertex 6.00373 11.9753 39
      vertex 6.40028 10.9988 39
      vertex 6.40059 11.999 39
    endloop
  endfacet
  facet normal 0 0 1
    outer loop
      vertex 6.00373 11.9753 39
      vertex 6.00262 10.969 39
      vertex 6.40028 10.9988 39
    endloop
  endfacet
  facet normal -0 0 1
    outer loop
      vertex 5.61001 11.9202 39
      vertex 6.00262 10.969 39
      vertex 6.00373 11.9753 39
    endloop
  endfacet
  facet normal 0 0 1
    outer loop
      vertex 5.61001 11.9202 39
      vertex 5.60992 10.8997 39
      vertex 6.00262 10.969 39
    endloop
  endfacet
  facet normal -0 0 1
    outer loop
      vertex 5.22192 11.8339 39
      vertex 5.60992 10.8997 39
      vertex 5.61001 11.9202 39
    endloop
  endfacet
  facet normal 0 0 1
    outer loop
      vertex 5.60992 10.8997 39
      vertex 5.22192 11.8339 39
      vertex 5.22605 10.7917 39
    endloop
  endfacet
  facet normal -0 0 1
    outer loop
      vertex 4.8419 11.7171 39
      vertex 5.22605 10.7917 39
      vertex 5.22192 11.8339 39
    endloop
  endfacet
  facet normal 0 0 1
    outer loop
      vertex 5.22605 10.7917 39
      vertex 4.8419 11.7171 39
      vertex 4.85485 10.646 39
    endloop
  endfacet
  facet normal -0 0 1
    outer loop
      vertex 4.47237 11.5704 39
      vertex 4.85485 10.646 39
      vertex 4.8419 11.7171 39
    endloop
  endfacet
  facet normal -0 0 1
    outer loop
      vertex 4.11566 11.3949 39
      vertex 4.85485 10.646 39
      vertex 4.47237 11.5704 39
    endloop
  endfacet
  facet normal 0 0 1
    outer loop
      vertex 4.85485 10.646 39
      vertex 4.11566 11.3949 39
      vertex 4.5 10.4641 39
    endloop
  endfacet
  facet normal -0 0 1
    outer loop
      vertex 4 11.326 39
      vertex 4.5 10.4641 39
      vertex 4.11566 11.3949 39
    endloop
  endfacet
  facet normal 0 0 1
    outer loop
      vertex 4.5 10.4641 39
      vertex 4 11.326 39
      vertex 4.16502 10.2478 39
    endloop
  endfacet
  facet normal 0 0 1
    outer loop
      vertex 4.16502 10.2478 39
      vertex 4 11.326 39
      vertex 4 10.1161 39
    endloop
  endfacet
  facet normal -0.19509 -0.980785 0
    outer loop
      vertex 0.617316 0.0761204 14.5
      vertex 1 0 24.5
      vertex 0.617316 0.0761204 24.5
    endloop
  endfacet
  facet normal -0.19509 -0.980785 -0
    outer loop
      vertex 1 0 24.5
      vertex 0.617316 0.0761204 14.5
      vertex 1 0 14.5
    endloop
  endfacet
  facet normal -0.831471 -0.555567 0
    outer loop
      vertex 0.292892 0.292892 14.5
      vertex 0.0761204 0.617316 24.5
      vertex 0.0761204 0.617316 14.5
    endloop
  endfacet
  facet normal -0.831471 -0.555567 0
    outer loop
      vertex 0.0761204 0.617316 24.5
      vertex 0.292892 0.292892 14.5
      vertex 0.292892 0.292892 24.5
    endloop
  endfacet
  facet normal -0.980785 -0.19509 0
    outer loop
      vertex 0.0761204 0.617316 14.5
      vertex 0 1 24.5
      vertex 0 1 14.5
    endloop
  endfacet
  facet normal -0.980785 -0.19509 0
    outer loop
      vertex 0 1 24.5
      vertex 0.0761204 0.617316 14.5
      vertex 0.0761204 0.617316 24.5
    endloop
  endfacet
  facet normal -0.555567 -0.831471 0
    outer loop
      vertex 0.292892 0.292892 14.5
      vertex 0.617316 0.0761204 24.5
      vertex 0.292892 0.292892 24.5
    endloop
  endfacet
  facet normal -0.555567 -0.831471 -0
    outer loop
      vertex 0.617316 0.0761204 24.5
      vertex 0.292892 0.292892 14.5
      vertex 0.617316 0.0761204 14.5
    endloop
  endfacet
  facet normal -0.19504 0.980795 0
    outer loop
      vertex 1 11 3.5
      vertex 0.617316 10.9239 35.5
      vertex 1 11 35.5
    endloop
  endfacet
  facet normal -0.19504 0.980795 0
    outer loop
      vertex 0.617316 10.9239 35.5
      vertex 1 11 3.5
      vertex 0.617316 10.9239 3.5
    endloop
  endfacet
  facet normal -0.831453 0.555596 0
    outer loop
      vertex 0.0761204 10.3827 3.5
      vertex 0.292892 10.7071 35.5
      vertex 0.292892 10.7071 3.5
    endloop
  endfacet
  facet normal -0.831453 0.555596 0
    outer loop
      vertex 0.292892 10.7071 35.5
      vertex 0.0761204 10.3827 3.5
      vertex 0.0761204 10.3827 35.5
    endloop
  endfacet
  facet normal -0.980787 0.195082 0
    outer loop
      vertex 0 10 3.5
      vertex 0.0761204 10.3827 35.5
      vertex 0.0761204 10.3827 3.5
    endloop
  endfacet
  facet normal -0.980787 0.195082 0
    outer loop
      vertex 0.0761204 10.3827 35.5
      vertex 0 10 3.5
      vertex 0 10 35.5
    endloop
  endfacet
  facet normal -0.555618 0.831438 0
    outer loop
      vertex 0.617316 10.9239 3.5
      vertex 0.292892 10.7071 35.5
      vertex 0.617316 10.9239 35.5
    endloop
  endfacet
  facet normal -0.555618 0.831438 0
    outer loop
      vertex 0.292892 10.7071 35.5
      vertex 0.617316 10.9239 3.5
      vertex 0.292892 10.7071 3.5
    endloop
  endfacet
  facet normal 0.980797 0.195032 0
    outer loop
      vertex 18.5 10 30.5
      vertex 18.4239 10.3827 8.42388
      vertex 18.4239 10.3827 30.5761
    endloop
  endfacet
  facet normal 0.980797 0.195032 0
    outer loop
      vertex 18.4239 10.3827 8.42388
      vertex 18.5 10 30.5
      vertex 18.5 10 8.5
    endloop
  endfacet
  facet normal 0.555646 0.831419 -0
    outer loop
      vertex 18.2071 10.7071 8.20711
      vertex 17.8827 10.9239 31.1173
      vertex 18.2071 10.7071 30.7929
    endloop
  endfacet
  facet normal 0.555646 0.831419 0
    outer loop
      vertex 17.8827 10.9239 31.1173
      vertex 18.2071 10.7071 8.20711
      vertex 17.8827 10.9239 7.88268
    endloop
  endfacet
  facet normal 0.831419 0.555646 0
    outer loop
      vertex 18.4239 10.3827 30.5761
      vertex 18.2071 10.7071 8.20711
      vertex 18.2071 10.7071 30.7929
    endloop
  endfacet
  facet normal 0.831419 0.555646 0
    outer loop
      vertex 18.2071 10.7071 8.20711
      vertex 18.4239 10.3827 30.5761
      vertex 18.4239 10.3827 8.42388
    endloop
  endfacet
  facet normal 0.195032 0.980797 -0
    outer loop
      vertex 17.8827 10.9239 7.88268
      vertex 17.5 11 31.5
      vertex 17.8827 10.9239 31.1173
    endloop
  endfacet
  facet normal 0.195032 0.980797 0
    outer loop
      vertex 17.5 11 31.5
      vertex 17.8827 10.9239 7.88268
      vertex 17.5 11 7.5
    endloop
  endfacet
  facet normal 0 -1 0
    outer loop
      vertex 1 0 24.5
      vertex 14 0 22
      vertex 14 0 24.5
    endloop
  endfacet
  facet normal 0 -1 0
    outer loop
      vertex 14 0 22
      vertex 14 0 17
      vertex 17 0 22
    endloop
  endfacet
  facet normal 0 -1 0
    outer loop
      vertex 1 0 24.5
      vertex 14 0 17
      vertex 14 0 22
    endloop
  endfacet
  facet normal 0 -1 0
    outer loop
      vertex 1 0 14.5
      vertex 14 0 17
      vertex 1 0 24.5
    endloop
  endfacet
  facet normal 0 -1 -0
    outer loop
      vertex 14 0 17
      vertex 1 0 14.5
      vertex 14 0 14.5
    endloop
  endfacet
  facet normal 0 -1 -0
    outer loop
      vertex 17 0 22
      vertex 14 0 17
      vertex 17 0 17
    endloop
  endfacet
  facet normal 0 1 0
    outer loop
      vertex 16 11 39
      vertex 15.5 11 34.5
      vertex 9.49418 11 39
    endloop
  endfacet
  facet normal 0 1 -0
    outer loop
      vertex 16 11 33
      vertex 15.5 11 34.5
      vertex 16 11 39
    endloop
  endfacet
  facet normal 0 1 -0
    outer loop
      vertex 17.5 11 7.5
      vertex 16 11 33
      vertex 17.5 11 31.5
    endloop
  endfacet
  facet normal 0 1 0
    outer loop
      vertex 16 11 6
      vertex 16 11 33
      vertex 17.5 11 7.5
    endloop
  endfacet
  facet normal 0 1 0
    outer loop
      vertex 16 11 33
      vertex 16 11 6
      vertex 15.5 11 34.5
    endloop
  endfacet
  facet normal 0 1 0
    outer loop
      vertex 16 11 6
      vertex 15.5 11 4.5
      vertex 15.5 11 34.5
    endloop
  endfacet
  facet normal 0 1 -0
    outer loop
      vertex 16 11 0
      vertex 15.5 11 4.5
      vertex 16 11 6
    endloop
  endfacet
  facet normal 0 1 0
    outer loop
      vertex 9.49418 11 0
      vertex 15.5 11 4.5
      vertex 16 11 0
    endloop
  endfacet
  facet normal 0 1 0
    outer loop
      vertex 15.5 11 4.5
      vertex 9.49418 11 0
      vertex 9.49418 11 4.5
    endloop
  endfacet
  facet normal 0 1 0
    outer loop
      vertex 9.49418 11 39
      vertex 15.5 11 34.5
      vertex 9.49418 11 34.5
    endloop
  endfacet
  facet normal 0 1 0
    outer loop
      vertex 3.50366 11 4.5
      vertex 3.50366 11 3.5
      vertex 3 11 4.5
    endloop
  endfacet
  facet normal 0 1 0
    outer loop
      vertex 3 11 34.5
      vertex 3.50366 11 35.5
      vertex 3.50366 11 34.5
    endloop
  endfacet
  facet normal 0 1 0
    outer loop
      vertex 3.50366 11 35.5
      vertex 3 11 34.5
      vertex 1 11 35.5
    endloop
  endfacet
  facet normal 0 1 -0
    outer loop
      vertex 3 11 4.5
      vertex 1 11 35.5
      vertex 3 11 34.5
    endloop
  endfacet
  facet normal 0 1 0
    outer loop
      vertex 3 11 4.5
      vertex 1 11 3.5
      vertex 1 11 35.5
    endloop
  endfacet
  facet normal 0 1 0
    outer loop
      vertex 1 11 3.5
      vertex 3 11 4.5
      vertex 3.50366 11 3.5
    endloop
  endfacet
  facet normal -1 0 0
    outer loop
      vertex 0 1 14.5
      vertex 0 3 24.5
      vertex 0 3 14.5
    endloop
  endfacet
  facet normal -1 -0 0
    outer loop
      vertex 0 3 24.5
      vertex 0 1 14.5
      vertex 0 1 24.5
    endloop
  endfacet
  facet normal -1 0 0
    outer loop
      vertex 0 3 9.5
      vertex 0 10 3.5
      vertex 0 9 3.5
    endloop
  endfacet
  facet normal -1 0 0
    outer loop
      vertex 0 10 3.5
      vertex 0 3 14.5
      vertex 0 10 35.5
    endloop
  endfacet
  facet normal -1 0 0
    outer loop
      vertex 0 10 3.5
      vertex 0 3 9.5
      vertex 0 3 14.5
    endloop
  endfacet
  facet normal -1 0 0
    outer loop
      vertex 0 3 24.5
      vertex 0 10 35.5
      vertex 0 3 14.5
    endloop
  endfacet
  facet normal -1 0 0
    outer loop
      vertex 0 3 29.5
      vertex 0 10 35.5
      vertex 0 3 24.5
    endloop
  endfacet
  facet normal -1 -0 0
    outer loop
      vertex 0 10 35.5
      vertex 0 3 29.5
      vertex 0 9 35.5
    endloop
  endfacet
  facet normal -0.0596126 0.998222 0
    outer loop
      vertex 6.40059 11.999 0
      vertex 6.00373 11.9753 4.5
      vertex 6.40059 11.999 4.5
    endloop
  endfacet
  facet normal -0.0596126 0.998222 0
    outer loop
      vertex 6.00373 11.9753 4.5
      vertex 6.40059 11.999 0
      vertex 6.00373 11.9753 0
    endloop
  endfacet
  facet normal -0.0596126 0.998222 0
    outer loop
      vertex 6.40059 11.999 34.5
      vertex 6.00373 11.9753 39
      vertex 6.40059 11.999 39
    endloop
  endfacet
  facet normal -0.0596126 0.998222 0
    outer loop
      vertex 6.00373 11.9753 39
      vertex 6.40059 11.999 34.5
      vertex 6.00373 11.9753 34.5
    endloop
  endfacet
  facet normal 0.331752 0.943367 -0
    outer loop
      vertex 8.34432 11.6474 0
      vertex 7.96925 11.7793 4.5
      vertex 8.34432 11.6474 4.5
    endloop
  endfacet
  facet normal 0.331752 0.943367 0
    outer loop
      vertex 7.96925 11.7793 4.5
      vertex 8.34432 11.6474 0
      vertex 7.96925 11.7793 0
    endloop
  endfacet
  facet normal 0.331752 0.943367 -0
    outer loop
      vertex 8.34432 11.6474 34.5
      vertex 7.96925 11.7793 39
      vertex 8.34432 11.6474 39
    endloop
  endfacet
  facet normal 0.331752 0.943367 0
    outer loop
      vertex 7.96925 11.7793 39
      vertex 8.34432 11.6474 34.5
      vertex 7.96925 11.7793 34.5
    endloop
  endfacet
  facet normal -0.217069 0.976156 0
    outer loop
      vertex 5.61001 11.9202 0
      vertex 5.22192 11.8339 4.5
      vertex 5.61001 11.9202 4.5
    endloop
  endfacet
  facet normal -0.217069 0.976156 0
    outer loop
      vertex 5.22192 11.8339 4.5
      vertex 5.61001 11.9202 0
      vertex 5.22192 11.8339 0
    endloop
  endfacet
  facet normal -0.217069 0.976156 0
    outer loop
      vertex 5.61001 11.9202 34.5
      vertex 5.22192 11.8339 39
      vertex 5.61001 11.9202 39
    endloop
  endfacet
  facet normal -0.217069 0.976156 0
    outer loop
      vertex 5.22192 11.8339 39
      vertex 5.61001 11.9202 34.5
      vertex 5.22192 11.8339 34.5
    endloop
  endfacet
  facet normal 0.0993518 0.995052 -0
    outer loop
      vertex 7.19368 11.9516 0
      vertex 6.79807 11.9911 4.5
      vertex 7.19368 11.9516 4.5
    endloop
  endfacet
  facet normal 0.0993518 0.995052 0
    outer loop
      vertex 6.79807 11.9911 4.5
      vertex 7.19368 11.9516 0
      vertex 6.79807 11.9911 0
    endloop
  endfacet
  facet normal 0.0993518 0.995052 -0
    outer loop
      vertex 7.19368 11.9516 34.5
      vertex 6.79807 11.9911 39
      vertex 7.19368 11.9516 39
    endloop
  endfacet
  facet normal 0.0993518 0.995052 0
    outer loop
      vertex 6.79807 11.9911 39
      vertex 7.19368 11.9516 34.5
      vertex 6.79807 11.9911 34.5
    endloop
  endfacet
  facet normal 0.255558 0.966794 -0
    outer loop
      vertex 7.96925 11.7793 0
      vertex 7.58489 11.8809 4.5
      vertex 7.96925 11.7793 4.5
    endloop
  endfacet
  facet normal 0.255558 0.966794 0
    outer loop
      vertex 7.58489 11.8809 4.5
      vertex 7.96925 11.7793 0
      vertex 7.58489 11.8809 0
    endloop
  endfacet
  facet normal 0.255558 0.966794 -0
    outer loop
      vertex 7.96925 11.7793 34.5
      vertex 7.58489 11.8809 39
      vertex 7.96925 11.7793 39
    endloop
  endfacet
  facet normal 0.255558 0.966794 0
    outer loop
      vertex 7.58489 11.8809 39
      vertex 7.96925 11.7793 34.5
      vertex 7.58489 11.8809 34.5
    endloop
  endfacet
  facet normal 0.0198713 0.999803 -0
    outer loop
      vertex 6.79807 11.9911 0
      vertex 6.40059 11.999 4.5
      vertex 6.79807 11.9911 4.5
    endloop
  endfacet
  facet normal 0.0198713 0.999803 0
    outer loop
      vertex 6.40059 11.999 4.5
      vertex 6.79807 11.9911 0
      vertex 6.40059 11.999 0
    endloop
  endfacet
  facet normal 0.0198713 0.999803 -0
    outer loop
      vertex 6.79807 11.9911 34.5
      vertex 6.40059 11.999 39
      vertex 6.79807 11.9911 39
    endloop
  endfacet
  facet normal 0.0198713 0.999803 0
    outer loop
      vertex 6.40059 11.999 39
      vertex 6.79807 11.9911 34.5
      vertex 6.40059 11.999 34.5
    endloop
  endfacet
  facet normal 0.405476 0.914106 -0
    outer loop
      vertex 8.70773 11.4862 0
      vertex 8.34432 11.6474 4.5
      vertex 8.70773 11.4862 4.5
    endloop
  endfacet
  facet normal 0.405476 0.914106 0
    outer loop
      vertex 8.34432 11.6474 4.5
      vertex 8.70773 11.4862 0
      vertex 8.34432 11.6474 0
    endloop
  endfacet
  facet normal 0.405476 0.914106 -0
    outer loop
      vertex 8.70773 11.4862 34.5
      vertex 8.34432 11.6474 39
      vertex 8.70773 11.4862 39
    endloop
  endfacet
  facet normal 0.405476 0.914106 0
    outer loop
      vertex 8.34432 11.6474 39
      vertex 8.70773 11.4862 34.5
      vertex 8.34432 11.6474 34.5
    endloop
  endfacet
  facet normal 0.610264 0.792198 -0
    outer loop
      vertex 9.49418 11 0
      vertex 9.39046 11.0799 4.5
      vertex 9.49418 11 4.5
    endloop
  endfacet
  facet normal 0.610264 0.792198 0
    outer loop
      vertex 9.39046 11.0799 4.5
      vertex 9.49418 11 0
      vertex 9.39046 11.0799 0
    endloop
  endfacet
  facet normal 0.610264 0.792198 -0
    outer loop
      vertex 9.49418 11 34.5
      vertex 9.39046 11.0799 39
      vertex 9.49418 11 39
    endloop
  endfacet
  facet normal 0.610264 0.792198 0
    outer loop
      vertex 9.39046 11.0799 39
      vertex 9.49418 11 34.5
      vertex 9.39046 11.0799 34.5
    endloop
  endfacet
  facet normal -0.511575 0.859239 -3.2855e-05
    outer loop
      vertex 4.11566 11.3949 4.5
      vertex 4 11.326 3.5
      vertex 3.77403 11.1915 4.5
    endloop
  endfacet
  facet normal -0.511784 0.859114 0
    outer loop
      vertex 4.11566 11.3949 0
      vertex 4 11.326 3.5
      vertex 4.11566 11.3949 4.5
    endloop
  endfacet
  facet normal -0.511784 0.859114 0
    outer loop
      vertex 4 11.326 3.5
      vertex 4.11566 11.3949 0
      vertex 4 11.326 0
    endloop
  endfacet
  facet normal -0.511467 0.859303 0
    outer loop
      vertex 3.77403 11.1915 4.5
      vertex 4 11.326 3.5
      vertex 3.77403 11.1915 3.5
    endloop
  endfacet
  facet normal -0.511784 0.859114 0
    outer loop
      vertex 4.11566 11.3949 39
      vertex 4 11.326 35.5
      vertex 4 11.326 39
    endloop
  endfacet
  facet normal -0.511784 0.859114 0
    outer loop
      vertex 4.11566 11.3949 34.5
      vertex 4 11.326 35.5
      vertex 4.11566 11.3949 39
    endloop
  endfacet
  facet normal -0.511575 0.859239 3.2855e-05
    outer loop
      vertex 3.77403 11.1915 34.5
      vertex 4 11.326 35.5
      vertex 4.11566 11.3949 34.5
    endloop
  endfacet
  facet normal -0.511467 0.859303 0
    outer loop
      vertex 4 11.326 35.5
      vertex 3.77403 11.1915 34.5
      vertex 3.77403 11.1915 35.5
    endloop
  endfacet
  facet normal -0.577993 0.816042 0
    outer loop
      vertex 3.77403 11.1915 3.5
      vertex 3.50366 11 4.5
      vertex 3.77403 11.1915 4.5
    endloop
  endfacet
  facet normal -0.577993 0.816042 0
    outer loop
      vertex 3.50366 11 4.5
      vertex 3.77403 11.1915 3.5
      vertex 3.50366 11 3.5
    endloop
  endfacet
  facet normal -0.577993 0.816042 0
    outer loop
      vertex 3.77403 11.1915 34.5
      vertex 3.50366 11 35.5
      vertex 3.77403 11.1915 35.5
    endloop
  endfacet
  facet normal -0.577993 0.816042 0
    outer loop
      vertex 3.50366 11 35.5
      vertex 3.77403 11.1915 34.5
      vertex 3.50366 11 34.5
    endloop
  endfacet
  facet normal -0.368978 0.929438 0
    outer loop
      vertex 4.8419 11.7171 34.5
      vertex 4.47237 11.5704 39
      vertex 4.8419 11.7171 39
    endloop
  endfacet
  facet normal -0.368978 0.929438 0
    outer loop
      vertex 4.47237 11.5704 39
      vertex 4.8419 11.7171 34.5
      vertex 4.47237 11.5704 34.5
    endloop
  endfacet
  facet normal -0.368978 0.929438 0
    outer loop
      vertex 4.8419 11.7171 0
      vertex 4.47237 11.5704 4.5
      vertex 4.8419 11.7171 4.5
    endloop
  endfacet
  facet normal -0.368978 0.929438 0
    outer loop
      vertex 4.47237 11.5704 4.5
      vertex 4.8419 11.7171 0
      vertex 4.47237 11.5704 0
    endloop
  endfacet
  facet normal -0.138597 0.990349 0
    outer loop
      vertex 6.00373 11.9753 0
      vertex 5.61001 11.9202 4.5
      vertex 6.00373 11.9753 4.5
    endloop
  endfacet
  facet normal -0.138597 0.990349 0
    outer loop
      vertex 5.61001 11.9202 4.5
      vertex 6.00373 11.9753 0
      vertex 5.61001 11.9202 0
    endloop
  endfacet
  facet normal -0.138597 0.990349 0
    outer loop
      vertex 6.00373 11.9753 34.5
      vertex 5.61001 11.9202 39
      vertex 6.00373 11.9753 39
    endloop
  endfacet
  facet normal -0.138597 0.990349 0
    outer loop
      vertex 5.61001 11.9202 39
      vertex 6.00373 11.9753 34.5
      vertex 5.61001 11.9202 34.5
    endloop
  endfacet
  facet normal 0.177841 0.984059 -0
    outer loop
      vertex 7.58489 11.8809 0
      vertex 7.19368 11.9516 4.5
      vertex 7.58489 11.8809 4.5
    endloop
  endfacet
  facet normal 0.177841 0.984059 0
    outer loop
      vertex 7.19368 11.9516 4.5
      vertex 7.58489 11.8809 0
      vertex 7.19368 11.9516 0
    endloop
  endfacet
  facet normal 0.177841 0.984059 -0
    outer loop
      vertex 7.58489 11.8809 34.5
      vertex 7.19368 11.9516 39
      vertex 7.58489 11.8809 39
    endloop
  endfacet
  facet normal 0.177841 0.984059 0
    outer loop
      vertex 7.19368 11.9516 39
      vertex 7.58489 11.8809 34.5
      vertex 7.19368 11.9516 34.5
    endloop
  endfacet
  facet normal 0.476895 0.87896 -0
    outer loop
      vertex 9.05718 11.2966 0
      vertex 8.70773 11.4862 4.5
      vertex 9.05718 11.2966 4.5
    endloop
  endfacet
  facet normal 0.476895 0.87896 0
    outer loop
      vertex 8.70773 11.4862 4.5
      vertex 9.05718 11.2966 0
      vertex 8.70773 11.4862 0
    endloop
  endfacet
  facet normal 0.476895 0.87896 -0
    outer loop
      vertex 9.05718 11.2966 34.5
      vertex 8.70773 11.4862 39
      vertex 9.05718 11.2966 39
    endloop
  endfacet
  facet normal 0.476895 0.87896 0
    outer loop
      vertex 8.70773 11.4862 39
      vertex 9.05718 11.2966 34.5
      vertex 8.70773 11.4862 34.5
    endloop
  endfacet
  facet normal 0.545109 0.838365 -0
    outer loop
      vertex 9.39046 11.0799 0
      vertex 9.05718 11.2966 4.5
      vertex 9.39046 11.0799 4.5
    endloop
  endfacet
  facet normal 0.545109 0.838365 0
    outer loop
      vertex 9.05718 11.2966 4.5
      vertex 9.39046 11.0799 0
      vertex 9.05718 11.2966 0
    endloop
  endfacet
  facet normal 0.545109 0.838365 -0
    outer loop
      vertex 9.39046 11.0799 34.5
      vertex 9.05718 11.2966 39
      vertex 9.39046 11.0799 39
    endloop
  endfacet
  facet normal 0.545109 0.838365 0
    outer loop
      vertex 9.05718 11.2966 39
      vertex 9.39046 11.0799 34.5
      vertex 9.05718 11.2966 34.5
    endloop
  endfacet
  facet normal -0.441459 0.897281 0
    outer loop
      vertex 4.47237 11.5704 0
      vertex 4.11566 11.3949 4.5
      vertex 4.47237 11.5704 4.5
    endloop
  endfacet
  facet normal -0.441459 0.897281 0
    outer loop
      vertex 4.11566 11.3949 4.5
      vertex 4.47237 11.5704 0
      vertex 4.11566 11.3949 0
    endloop
  endfacet
  facet normal -0.441459 0.897281 0
    outer loop
      vertex 4.47237 11.5704 34.5
      vertex 4.11566 11.3949 39
      vertex 4.47237 11.5704 39
    endloop
  endfacet
  facet normal -0.441459 0.897281 0
    outer loop
      vertex 4.11566 11.3949 39
      vertex 4.47237 11.5704 34.5
      vertex 4.11566 11.3949 34.5
    endloop
  endfacet
  facet normal -0.293789 0.95587 0
    outer loop
      vertex 5.22192 11.8339 0
      vertex 4.8419 11.7171 4.5
      vertex 5.22192 11.8339 4.5
    endloop
  endfacet
  facet normal -0.293789 0.95587 0
    outer loop
      vertex 4.8419 11.7171 4.5
      vertex 5.22192 11.8339 0
      vertex 4.8419 11.7171 0
    endloop
  endfacet
  facet normal -0.293789 0.95587 0
    outer loop
      vertex 5.22192 11.8339 34.5
      vertex 4.8419 11.7171 39
      vertex 5.22192 11.8339 39
    endloop
  endfacet
  facet normal -0.293789 0.95587 0
    outer loop
      vertex 4.8419 11.7171 39
      vertex 5.22192 11.8339 34.5
      vertex 4.8419 11.7171 34.5
    endloop
  endfacet
  facet normal -1 0 0
    outer loop
      vertex 3 11 4.5
      vertex 3 13.5 34.5
      vertex 3 13.5 4.5
    endloop
  endfacet
  facet normal -1 -0 0
    outer loop
      vertex 3 13.5 34.5
      vertex 3 11 4.5
      vertex 3 11 34.5
    endloop
  endfacet
  facet normal 0 0 1
    outer loop
      vertex 15.5 13.5 34.5
      vertex 9.49418 11 34.5
      vertex 15.5 11 34.5
    endloop
  endfacet
  facet normal 0 0 1
    outer loop
      vertex 15.5 13.5 34.5
      vertex 9.39046 11.0799 34.5
      vertex 9.49418 11 34.5
    endloop
  endfacet
  facet normal 0 0 1
    outer loop
      vertex 15.5 13.5 34.5
      vertex 9.05718 11.2966 34.5
      vertex 9.39046 11.0799 34.5
    endloop
  endfacet
  facet normal 0 0 1
    outer loop
      vertex 15.5 13.5 34.5
      vertex 8.70773 11.4862 34.5
      vertex 9.05718 11.2966 34.5
    endloop
  endfacet
  facet normal 0 0 1
    outer loop
      vertex 15.5 13.5 34.5
      vertex 8.34432 11.6474 34.5
      vertex 8.70773 11.4862 34.5
    endloop
  endfacet
  facet normal 0 0 1
    outer loop
      vertex 15.5 13.5 34.5
      vertex 7.96925 11.7793 34.5
      vertex 8.34432 11.6474 34.5
    endloop
  endfacet
  facet normal 0 0 1
    outer loop
      vertex 15.5 13.5 34.5
      vertex 7.58489 11.8809 34.5
      vertex 7.96925 11.7793 34.5
    endloop
  endfacet
  facet normal 0 0 1
    outer loop
      vertex 15.5 13.5 34.5
      vertex 7.19368 11.9516 34.5
      vertex 7.58489 11.8809 34.5
    endloop
  endfacet
  facet normal -0 0 1
    outer loop
      vertex 3 13.5 34.5
      vertex 7.19368 11.9516 34.5
      vertex 15.5 13.5 34.5
    endloop
  endfacet
  facet normal 0 0 1
    outer loop
      vertex 7.19368 11.9516 34.5
      vertex 3 13.5 34.5
      vertex 6.79807 11.9911 34.5
    endloop
  endfacet
  facet normal 0 0 1
    outer loop
      vertex 6.79807 11.9911 34.5
      vertex 3 13.5 34.5
      vertex 6.40059 11.999 34.5
    endloop
  endfacet
  facet normal 0 0 1
    outer loop
      vertex 6.40059 11.999 34.5
      vertex 3 13.5 34.5
      vertex 6.00373 11.9753 34.5
    endloop
  endfacet
  facet normal 0 0 1
    outer loop
      vertex 6.00373 11.9753 34.5
      vertex 3 13.5 34.5
      vertex 5.61001 11.9202 34.5
    endloop
  endfacet
  facet normal 0 0 1
    outer loop
      vertex 3 13.5 34.5
      vertex 5.22192 11.8339 34.5
      vertex 5.61001 11.9202 34.5
    endloop
  endfacet
  facet normal 0 0 1
    outer loop
      vertex 3 13.5 34.5
      vertex 4.8419 11.7171 34.5
      vertex 5.22192 11.8339 34.5
    endloop
  endfacet
  facet normal 0 0 1
    outer loop
      vertex 3 13.5 34.5
      vertex 4.47237 11.5704 34.5
      vertex 4.8419 11.7171 34.5
    endloop
  endfacet
  facet normal 0 0 1
    outer loop
      vertex 3 13.5 34.5
      vertex 4.11566 11.3949 34.5
      vertex 4.47237 11.5704 34.5
    endloop
  endfacet
  facet normal 0 0 1
    outer loop
      vertex 3 13.5 34.5
      vertex 3.77403 11.1915 34.5
      vertex 4.11566 11.3949 34.5
    endloop
  endfacet
  facet normal 0 0 1
    outer loop
      vertex 3 11 34.5
      vertex 3.77403 11.1915 34.5
      vertex 3 13.5 34.5
    endloop
  endfacet
  facet normal 0 0 1
    outer loop
      vertex 3.77403 11.1915 34.5
      vertex 3 11 34.5
      vertex 3.50366 11 34.5
    endloop
  endfacet
  facet normal 1 -0 0
    outer loop
      vertex 15.5 11 34.5
      vertex 15.5 13.5 4.5
      vertex 15.5 13.5 34.5
    endloop
  endfacet
  facet normal 1 0 0
    outer loop
      vertex 15.5 13.5 4.5
      vertex 15.5 11 34.5
      vertex 15.5 11 4.5
    endloop
  endfacet
  facet normal 0 0 -1
    outer loop
      vertex 9.49418 11 4.5
      vertex 15.5 13.5 4.5
      vertex 15.5 11 4.5
    endloop
  endfacet
  facet normal 0 0 -1
    outer loop
      vertex 9.39046 11.0799 4.5
      vertex 15.5 13.5 4.5
      vertex 9.49418 11 4.5
    endloop
  endfacet
  facet normal 0 0 -1
    outer loop
      vertex 9.05718 11.2966 4.5
      vertex 15.5 13.5 4.5
      vertex 9.39046 11.0799 4.5
    endloop
  endfacet
  facet normal 0 0 -1
    outer loop
      vertex 8.70773 11.4862 4.5
      vertex 15.5 13.5 4.5
      vertex 9.05718 11.2966 4.5
    endloop
  endfacet
  facet normal 0 0 -1
    outer loop
      vertex 8.34432 11.6474 4.5
      vertex 15.5 13.5 4.5
      vertex 8.70773 11.4862 4.5
    endloop
  endfacet
  facet normal 0 0 -1
    outer loop
      vertex 7.96925 11.7793 4.5
      vertex 15.5 13.5 4.5
      vertex 8.34432 11.6474 4.5
    endloop
  endfacet
  facet normal 0 0 -1
    outer loop
      vertex 7.58489 11.8809 4.5
      vertex 15.5 13.5 4.5
      vertex 7.96925 11.7793 4.5
    endloop
  endfacet
  facet normal 0 0 -1
    outer loop
      vertex 7.19368 11.9516 4.5
      vertex 15.5 13.5 4.5
      vertex 7.58489 11.8809 4.5
    endloop
  endfacet
  facet normal 0 0 -1
    outer loop
      vertex 3 13.5 4.5
      vertex 7.19368 11.9516 4.5
      vertex 6.79807 11.9911 4.5
    endloop
  endfacet
  facet normal 0 0 -1
    outer loop
      vertex 3 13.5 4.5
      vertex 6.79807 11.9911 4.5
      vertex 6.40059 11.999 4.5
    endloop
  endfacet
  facet normal 0 0 -1
    outer loop
      vertex 3 13.5 4.5
      vertex 6.40059 11.999 4.5
      vertex 6.00373 11.9753 4.5
    endloop
  endfacet
  facet normal 0 0 -1
    outer loop
      vertex 3 13.5 4.5
      vertex 6.00373 11.9753 4.5
      vertex 5.61001 11.9202 4.5
    endloop
  endfacet
  facet normal 0 0 -1
    outer loop
      vertex 3 11 4.5
      vertex 3.77403 11.1915 4.5
      vertex 3.50366 11 4.5
    endloop
  endfacet
  facet normal 0 0 -1
    outer loop
      vertex 3 13.5 4.5
      vertex 3.77403 11.1915 4.5
      vertex 3 11 4.5
    endloop
  endfacet
  facet normal 0 0 -1
    outer loop
      vertex 3.77403 11.1915 4.5
      vertex 3 13.5 4.5
      vertex 4.11566 11.3949 4.5
    endloop
  endfacet
  facet normal 0 0 -1
    outer loop
      vertex 4.11566 11.3949 4.5
      vertex 3 13.5 4.5
      vertex 4.47237 11.5704 4.5
    endloop
  endfacet
  facet normal 0 0 -1
    outer loop
      vertex 7.19368 11.9516 4.5
      vertex 3 13.5 4.5
      vertex 15.5 13.5 4.5
    endloop
  endfacet
  facet normal 0 0 -1
    outer loop
      vertex 5.22192 11.8339 4.5
      vertex 3 13.5 4.5
      vertex 5.61001 11.9202 4.5
    endloop
  endfacet
  facet normal 0 0 -1
    outer loop
      vertex 4.8419 11.7171 4.5
      vertex 3 13.5 4.5
      vertex 5.22192 11.8339 4.5
    endloop
  endfacet
  facet normal 0 0 -1
    outer loop
      vertex 4.47237 11.5704 4.5
      vertex 3 13.5 4.5
      vertex 4.8419 11.7171 4.5
    endloop
  endfacet
  facet normal 0 1 -0
    outer loop
      vertex 15.5 13.5 4.5
      vertex 3 13.5 34.5
      vertex 15.5 13.5 34.5
    endloop
  endfacet
  facet normal 0 1 0
    outer loop
      vertex 3 13.5 34.5
      vertex 15.5 13.5 4.5
      vertex 3 13.5 4.5
    endloop
  endfacet
  facet normal 1 -0 0
    outer loop
      vertex 1 1 24.5
      vertex 1 3 14.5
      vertex 1 3 24.5
    endloop
  endfacet
  facet normal 1 0 0
    outer loop
      vertex 1 3 14.5
      vertex 1 1 24.5
      vertex 1 1 14.5
    endloop
  endfacet
  facet normal 1 0 0
    outer loop
      vertex 1 3 29.5
      vertex 1 10 35.5
      vertex 1 9 35.5
    endloop
  endfacet
  facet normal 1 0 0
    outer loop
      vertex 1 10 35.5
      vertex 1 3 24.5
      vertex 1 10 3.5
    endloop
  endfacet
  facet normal 1 0 0
    outer loop
      vertex 1 10 35.5
      vertex 1 3 29.5
      vertex 1 3 24.5
    endloop
  endfacet
  facet normal 1 -0 0
    outer loop
      vertex 1 3 14.5
      vertex 1 10 3.5
      vertex 1 3 24.5
    endloop
  endfacet
  facet normal 1 -0 0
    outer loop
      vertex 1 3 9.5
      vertex 1 10 3.5
      vertex 1 3 14.5
    endloop
  endfacet
  facet normal 1 0 0
    outer loop
      vertex 1 10 3.5
      vertex 1 3 9.5
      vertex 1 9 3.5
    endloop
  endfacet
  facet normal -1 0 0
    outer loop
      vertex 15 1 17
      vertex 15 3.5 22
      vertex 15 3.5 17
    endloop
  endfacet
  facet normal -1 -0 0
    outer loop
      vertex 15 3.5 22
      vertex 15 1 17
      vertex 15 1 22
    endloop
  endfacet
  facet normal 0 -1 0
    outer loop
      vertex 9.13824 10 39
      vertex 16 10 33
      vertex 16 10 39
    endloop
  endfacet
  facet normal 0 -1 0
    outer loop
      vertex 16 10 6
      vertex 16 10 33
      vertex 9.13824 10 39
    endloop
  endfacet
  facet normal 0 -1 0
    outer loop
      vertex 16 10 33
      vertex 16 10 6
      vertex 18.5 10 30.5
    endloop
  endfacet
  facet normal 0 -1 -0
    outer loop
      vertex 18.5 10 30.5
      vertex 16 10 6
      vertex 18.5 10 8.5
    endloop
  endfacet
  facet normal 0 -1 0
    outer loop
      vertex 9.13824 10 0
      vertex 16 10 6
      vertex 9.13824 10 39
    endloop
  endfacet
  facet normal 0 -1 -0
    outer loop
      vertex 16 10 6
      vertex 9.13824 10 0
      vertex 16 10 0
    endloop
  endfacet
  facet normal 0 -1 0
    outer loop
      vertex 1 10 3.5
      vertex 3.85435 10 35.5
      vertex 1 10 35.5
    endloop
  endfacet
  facet normal 0 -1 -0
    outer loop
      vertex 3.85435 10 35.5
      vertex 1 10 3.5
      vertex 3.85435 10 3.5
    endloop
  endfacet
  facet normal 0 1 0
    outer loop
      vertex 15 1 22
      vertex 15 1 17
      vertex 14 1 22
    endloop
  endfacet
  facet normal 0 1 -0
    outer loop
      vertex 14 1 22
      vertex 1 1 24.5
      vertex 14 1 24.5
    endloop
  endfacet
  facet normal 0 1 0
    outer loop
      vertex 14 1 17
      vertex 14 1 22
      vertex 15 1 17
    endloop
  endfacet
  facet normal 0 1 0
    outer loop
      vertex 14 1 22
      vertex 14 1 17
      vertex 1 1 24.5
    endloop
  endfacet
  facet normal 0 1 0
    outer loop
      vertex 1 1 14.5
      vertex 14 1 17
      vertex 14 1 14.5
    endloop
  endfacet
  facet normal 0 1 0
    outer loop
      vertex 14 1 17
      vertex 1 1 14.5
      vertex 1 1 24.5
    endloop
  endfacet
  facet normal 0 1 -0
    outer loop
      vertex 16 3.5 17
      vertex 15 3.5 22
      vertex 16 3.5 22
    endloop
  endfacet
  facet normal 0 1 0
    outer loop
      vertex 15 3.5 22
      vertex 16 3.5 17
      vertex 15 3.5 17
    endloop
  endfacet
  facet normal 1 -0 0
    outer loop
      vertex 17 0 22
      vertex 17 2.5 17
      vertex 17 2.5 22
    endloop
  endfacet
  facet normal 1 0 0
    outer loop
      vertex 17 2.5 17
      vertex 17 0 22
      vertex 17 0 17
    endloop
  endfacet
  facet normal -0.0250774 -0.999686 0
    outer loop
      vertex 6.40028 10.9988 0
      vertex 6.79892 10.9888 39
      vertex 6.40028 10.9988 39
    endloop
  endfacet
  facet normal -0.0250774 -0.999686 -0
    outer loop
      vertex 6.79892 10.9888 39
      vertex 6.40028 10.9988 0
      vertex 6.79892 10.9888 0
    endloop
  endfacet
  facet normal 0.365373 -0.930861 0
    outer loop
      vertex 4.85485 10.646 0
      vertex 5.22605 10.7917 39
      vertex 4.85485 10.646 39
    endloop
  endfacet
  facet normal 0.365373 -0.930861 0
    outer loop
      vertex 5.22605 10.7917 39
      vertex 4.85485 10.646 0
      vertex 5.22605 10.7917 0
    endloop
  endfacet
  facet normal -0.41127 -0.911514 0
    outer loop
      vertex 7.96136 10.7235 0
      vertex 8.32484 10.5595 39
      vertex 7.96136 10.7235 39
    endloop
  endfacet
  facet normal -0.41127 -0.911514 -0
    outer loop
      vertex 8.32484 10.5595 39
      vertex 7.96136 10.7235 0
      vertex 8.32484 10.5595 0
    endloop
  endfacet
  facet normal -0.583773 -0.811917 0
    outer loop
      vertex 8.67018 10.3601 0
      vertex 8.99396 10.1273 39
      vertex 8.67018 10.3601 39
    endloop
  endfacet
  facet normal -0.583773 -0.811917 -0
    outer loop
      vertex 8.99396 10.1273 39
      vertex 8.67018 10.3601 0
      vertex 8.99396 10.1273 0
    endloop
  endfacet
  facet normal 0.173785 -0.984784 0
    outer loop
      vertex 5.60992 10.8997 0
      vertex 6.00262 10.969 39
      vertex 5.60992 10.8997 39
    endloop
  endfacet
  facet normal 0.173785 -0.984784 0
    outer loop
      vertex 6.00262 10.969 39
      vertex 5.60992 10.8997 0
      vertex 6.00262 10.969 0
    endloop
  endfacet
  facet normal -0.222439 -0.974947 0
    outer loop
      vertex 7.19459 10.9392 0
      vertex 7.58336 10.8505 39
      vertex 7.19459 10.9392 39
    endloop
  endfacet
  facet normal -0.222439 -0.974947 -0
    outer loop
      vertex 7.58336 10.8505 39
      vertex 7.19459 10.9392 0
      vertex 7.58336 10.8505 0
    endloop
  endfacet
  facet normal -0.318484 -0.947928 0
    outer loop
      vertex 7.58336 10.8505 0
      vertex 7.96136 10.7235 39
      vertex 7.58336 10.8505 39
    endloop
  endfacet
  facet normal -0.318484 -0.947928 -0
    outer loop
      vertex 7.96136 10.7235 39
      vertex 7.58336 10.8505 0
      vertex 7.96136 10.7235 0
    endloop
  endfacet
  facet normal -0.124383 -0.992234 0
    outer loop
      vertex 6.79892 10.9888 0
      vertex 7.19459 10.9392 39
      vertex 6.79892 10.9888 39
    endloop
  endfacet
  facet normal -0.124383 -0.992234 -0
    outer loop
      vertex 7.19459 10.9392 39
      vertex 6.79892 10.9888 0
      vertex 7.19459 10.9392 0
    endloop
  endfacet
  facet normal -0.500034 -0.866006 0
    outer loop
      vertex 8.32484 10.5595 0
      vertex 8.67018 10.3601 39
      vertex 8.32484 10.5595 39
    endloop
  endfacet
  facet normal -0.500034 -0.866006 -0
    outer loop
      vertex 8.67018 10.3601 39
      vertex 8.32484 10.5595 0
      vertex 8.67018 10.3601 0
    endloop
  endfacet
  facet normal -0.661604 -0.749853 0
    outer loop
      vertex 8.99396 10.1273 0
      vertex 9.13824 10 39
      vertex 8.99396 10.1273 39
    endloop
  endfacet
  facet normal -0.661604 -0.749853 -0
    outer loop
      vertex 9.13824 10 39
      vertex 8.99396 10.1273 0
      vertex 9.13824 10 0
    endloop
  endfacet
  facet normal 0.542452 -0.840087 0
    outer loop
      vertex 4.16502 10.2478 0
      vertex 4.5 10.4641 39
      vertex 4.16502 10.2478 39
    endloop
  endfacet
  facet normal 0.542452 -0.840087 0
    outer loop
      vertex 4.5 10.4641 39
      vertex 4.16502 10.2478 0
      vertex 4.5 10.4641 0
    endloop
  endfacet
  facet normal 0.456169 -0.889893 0
    outer loop
      vertex 4.5 10.4641 0
      vertex 4.85485 10.646 39
      vertex 4.5 10.4641 39
    endloop
  endfacet
  facet normal 0.456169 -0.889893 0
    outer loop
      vertex 4.85485 10.646 39
      vertex 4.5 10.4641 0
      vertex 4.85485 10.646 0
    endloop
  endfacet
  facet normal 0.623319 -0.781968 0
    outer loop
      vertex 3.85435 10 35.5
      vertex 3.85435 10 3.5
      vertex 4 10.1161 35.5
    endloop
  endfacet
  facet normal 0.623782 -0.781598 0
    outer loop
      vertex 4 10.1161 35.5
      vertex 4.16502 10.2478 39
      vertex 4 10.1161 39
    endloop
  endfacet
  facet normal 0.623319 -0.781968 0
    outer loop
      vertex 4 10.1161 3.5
      vertex 4 10.1161 35.5
      vertex 3.85435 10 3.5
    endloop
  endfacet
  facet normal 0.623782 -0.781598 0
    outer loop
      vertex 4 10.1161 35.5
      vertex 4 10.1161 3.5
      vertex 4.16502 10.2478 39
    endloop
  endfacet
  facet normal 0.623782 -0.781598 0
    outer loop
      vertex 4.16502 10.2478 0
      vertex 4 10.1161 3.5
      vertex 4 10.1161 0
    endloop
  endfacet
  facet normal 0.623782 -0.781598 0
    outer loop
      vertex 4 10.1161 3.5
      vertex 4.16502 10.2478 0
      vertex 4.16502 10.2478 39
    endloop
  endfacet
  facet normal 0.270831 -0.962627 0
    outer loop
      vertex 5.22605 10.7917 0
      vertex 5.60992 10.8997 39
      vertex 5.22605 10.7917 39
    endloop
  endfacet
  facet normal 0.270831 -0.962627 0
    outer loop
      vertex 5.60992 10.8997 39
      vertex 5.22605 10.7917 0
      vertex 5.60992 10.8997 0
    endloop
  endfacet
  facet normal 0.0747289 -0.997204 0
    outer loop
      vertex 6.00262 10.969 0
      vertex 6.40028 10.9988 39
      vertex 6.00262 10.969 39
    endloop
  endfacet
  facet normal 0.0747289 -0.997204 0
    outer loop
      vertex 6.40028 10.9988 39
      vertex 6.00262 10.969 0
      vertex 6.40028 10.9988 0
    endloop
  endfacet
  facet normal 0.707107 0.707107 0
    outer loop
      vertex 17 2.5 22
      vertex 16 3.5 17
      vertex 16 3.5 22
    endloop
  endfacet
  facet normal 0.707107 0.707107 0
    outer loop
      vertex 16 3.5 17
      vertex 17 2.5 22
      vertex 17 2.5 17
    endloop
  endfacet
  facet normal 1 -0 0
    outer loop
      vertex 16 10 6
      vertex 16 11 0
      vertex 16 11 6
    endloop
  endfacet
  facet normal 1 0 0
    outer loop
      vertex 16 11 0
      vertex 16 10 6
      vertex 16 10 0
    endloop
  endfacet
  facet normal 1 -0 0
    outer loop
      vertex 16 10 39
      vertex 16 11 33
      vertex 16 11 39
    endloop
  endfacet
  facet normal 1 0 0
    outer loop
      vertex 16 11 33
      vertex 16 10 39
      vertex 16 10 33
    endloop
  endfacet
  facet normal 0.707084 -4.61272e-05 -0.70713
    outer loop
      vertex 18.5 10 8.5
      vertex 17.5 11 7.5
      vertex 17.8827 10.9239 7.88268
    endloop
  endfacet
  facet normal 0.707157 5.12809e-05 -0.707057
    outer loop
      vertex 18.5 10 8.5
      vertex 17.8827 10.9239 7.88268
      vertex 18.2071 10.7071 8.20711
    endloop
  endfacet
  facet normal 0.706998 -8.03167e-05 -0.707216
    outer loop
      vertex 18.5 10 8.5
      vertex 18.2071 10.7071 8.20711
      vertex 18.4239 10.3827 8.42388
    endloop
  endfacet
  facet normal 0.707107 0 -0.707107
    outer loop
      vertex 17.5 11 7.5
      vertex 18.5 10 8.5
      vertex 16 10 6
    endloop
  endfacet
  facet normal 0.707107 0 -0.707107
    outer loop
      vertex 17.5 11 7.5
      vertex 16 10 6
      vertex 16 11 6
    endloop
  endfacet
  facet normal 0.707107 -0 0.707107
    outer loop
      vertex 16 10 33
      vertex 17.5 11 31.5
      vertex 16 11 33
    endloop
  endfacet
  facet normal 0.707107 0 0.707107
    outer loop
      vertex 18.5 10 30.5
      vertex 17.5 11 31.5
      vertex 16 10 33
    endloop
  endfacet
  facet normal 0.707107 0 0.707107
    outer loop
      vertex 17.5 11 31.5
      vertex 18.5 10 30.5
      vertex 17.8827 10.9239 31.1173
    endloop
  endfacet
  facet normal 0.707107 0 0.707107
    outer loop
      vertex 17.8827 10.9239 31.1173
      vertex 18.5 10 30.5
      vertex 18.2071 10.7071 30.7929
    endloop
  endfacet
  facet normal 0.707107 0 0.707107
    outer loop
      vertex 18.2071 10.7071 30.7929
      vertex 18.5 10 30.5
      vertex 18.4239 10.3827 30.5761
    endloop
  endfacet
  facet normal 0 0 -1
    outer loop
      vertex 0 10 3.5
      vertex 1 10 3.5
      vertex 1 9 3.5
    endloop
  endfacet
  facet normal 0 0 -1
    outer loop
      vertex 1 10 3.5
      vertex 0.617316 10.9239 3.5
      vertex 1 11 3.5
    endloop
  endfacet
  facet normal 0 0 -1
    outer loop
      vertex 1 10 3.5
      vertex 0.292892 10.7071 3.5
      vertex 0.617316 10.9239 3.5
    endloop
  endfacet
  facet normal 0 0 -1
    outer loop
      vertex 1 10 3.5
      vertex 0.0761204 10.3827 3.5
      vertex 0.292892 10.7071 3.5
    endloop
  endfacet
  facet normal 0 0 -1
    outer loop
      vertex 0 10 3.5
      vertex 1 9 3.5
      vertex 0 9 3.5
    endloop
  endfacet
  facet normal 0 0 -1
    outer loop
      vertex 1 10 3.5
      vertex 0 10 3.5
      vertex 0.0761204 10.3827 3.5
    endloop
  endfacet
  facet normal 0 0 -1
    outer loop
      vertex 3.50366 11 3.5
      vertex 4 10.1161 3.5
      vertex 3.85435 10 3.5
    endloop
  endfacet
  facet normal 0 0 -1
    outer loop
      vertex 4 10.1161 3.5
      vertex 3.77403 11.1915 3.5
      vertex 4 11.326 3.5
    endloop
  endfacet
  facet normal 0 0 -1
    outer loop
      vertex 4 10.1161 3.5
      vertex 3.50366 11 3.5
      vertex 3.77403 11.1915 3.5
    endloop
  endfacet
  facet normal 0 0 -1
    outer loop
      vertex 1 10 3.5
      vertex 3.50366 11 3.5
      vertex 3.85435 10 3.5
    endloop
  endfacet
  facet normal -0 0 -1
    outer loop
      vertex 3.50366 11 3.5
      vertex 1 10 3.5
      vertex 1 11 3.5
    endloop
  endfacet
  facet normal -1 0 0
    outer loop
      vertex 4 10.1161 0
      vertex 4 11.326 3.5
      vertex 4 11.326 0
    endloop
  endfacet
  facet normal -1 -0 0
    outer loop
      vertex 4 11.326 3.5
      vertex 4 10.1161 0
      vertex 4 10.1161 3.5
    endloop
  endfacet
  facet normal -1 0 0
    outer loop
      vertex 4 10.1161 35.5
      vertex 4 11.326 39
      vertex 4 11.326 35.5
    endloop
  endfacet
  facet normal -1 -0 0
    outer loop
      vertex 4 11.326 39
      vertex 4 10.1161 35.5
      vertex 4 10.1161 39
    endloop
  endfacet
  facet normal -0 0 1
    outer loop
      vertex 3.77403 11.1915 35.5
      vertex 4 10.1161 35.5
      vertex 4 11.326 35.5
    endloop
  endfacet
  facet normal -0 0 1
    outer loop
      vertex 3.50366 11 35.5
      vertex 4 10.1161 35.5
      vertex 3.77403 11.1915 35.5
    endloop
  endfacet
  facet normal 0 0 1
    outer loop
      vertex 4 10.1161 35.5
      vertex 3.50366 11 35.5
      vertex 3.85435 10 35.5
    endloop
  endfacet
  facet normal 0 0 1
    outer loop
      vertex 1 10 35.5
      vertex 3.50366 11 35.5
      vertex 1 11 35.5
    endloop
  endfacet
  facet normal 0 0 1
    outer loop
      vertex 3.50366 11 35.5
      vertex 1 10 35.5
      vertex 3.85435 10 35.5
    endloop
  endfacet
  facet normal -0 0 1
    outer loop
      vertex 0.617316 10.9239 35.5
      vertex 1 10 35.5
      vertex 1 11 35.5
    endloop
  endfacet
  facet normal -0 0 1
    outer loop
      vertex 0.292892 10.7071 35.5
      vertex 1 10 35.5
      vertex 0.617316 10.9239 35.5
    endloop
  endfacet
  facet normal -0 0 1
    outer loop
      vertex 0.0761204 10.3827 35.5
      vertex 1 10 35.5
      vertex 0.292892 10.7071 35.5
    endloop
  endfacet
  facet normal 0 0 1
    outer loop
      vertex 0 10 35.5
      vertex 1 10 35.5
      vertex 0.0761204 10.3827 35.5
    endloop
  endfacet
  facet normal 0 0 1
    outer loop
      vertex 1 10 35.5
      vertex 0 10 35.5
      vertex 1 9 35.5
    endloop
  endfacet
  facet normal 0 0 1
    outer loop
      vertex 1 9 35.5
      vertex 0 10 35.5
      vertex 0 9 35.5
    endloop
  endfacet
  facet normal 0 -0.707107 -0.707107
    outer loop
      vertex 0 9 3.5
      vertex 1 3 9.5
      vertex 0 3 9.5
    endloop
  endfacet
  facet normal 0 -0.707107 -0.707107
    outer loop
      vertex 1 3 9.5
      vertex 0 9 3.5
      vertex 1 9 3.5
    endloop
  endfacet
  facet normal 0 -0.707107 0.707107
    outer loop
      vertex 0 3 29.5
      vertex 1 9 35.5
      vertex 0 9 35.5
    endloop
  endfacet
  facet normal 0 -0.707107 0.707107
    outer loop
      vertex 1 9 35.5
      vertex 0 3 29.5
      vertex 1 3 29.5
    endloop
  endfacet
  facet normal 0 0 -1
    outer loop
      vertex 1 0 14.5
      vertex 14 1 14.5
      vertex 14 0 14.5
    endloop
  endfacet
  facet normal 0 0 -1
    outer loop
      vertex 1 0 14.5
      vertex 1 1 14.5
      vertex 14 1 14.5
    endloop
  endfacet
  facet normal 0 0 -1
    outer loop
      vertex 0.617316 0.0761204 14.5
      vertex 1 1 14.5
      vertex 1 0 14.5
    endloop
  endfacet
  facet normal 0 0 -1
    outer loop
      vertex 0.292892 0.292892 14.5
      vertex 1 1 14.5
      vertex 0.617316 0.0761204 14.5
    endloop
  endfacet
  facet normal 0 0 -1
    outer loop
      vertex 0.0761204 0.617316 14.5
      vertex 1 1 14.5
      vertex 0.292892 0.292892 14.5
    endloop
  endfacet
  facet normal -0 0 -1
    outer loop
      vertex 1 1 14.5
      vertex 0.0761204 0.617316 14.5
      vertex 0 1 14.5
    endloop
  endfacet
  facet normal 0 0 -1
    outer loop
      vertex 1 1 14.5
      vertex 0 1 14.5
      vertex 1 3 14.5
    endloop
  endfacet
  facet normal -0 0 -1
    outer loop
      vertex 1 3 14.5
      vertex 0 1 14.5
      vertex 0 3 14.5
    endloop
  endfacet
  facet normal 0 -1 0
    outer loop
      vertex 0 3 9.5
      vertex 1 3 14.5
      vertex 0 3 14.5
    endloop
  endfacet
  facet normal 0 -1 -0
    outer loop
      vertex 1 3 14.5
      vertex 0 3 9.5
      vertex 1 3 9.5
    endloop
  endfacet
  facet normal 0 -1 0
    outer loop
      vertex 0 3 24.5
      vertex 1 3 29.5
      vertex 0 3 29.5
    endloop
  endfacet
  facet normal 0 -1 -0
    outer loop
      vertex 1 3 29.5
      vertex 0 3 24.5
      vertex 1 3 24.5
    endloop
  endfacet
  facet normal 0 0 1
    outer loop
      vertex 0 1 24.5
      vertex 1 1 24.5
      vertex 1 3 24.5
    endloop
  endfacet
  facet normal 0 -0 1
    outer loop
      vertex 0.0761204 0.617316 24.5
      vertex 1 1 24.5
      vertex 0 1 24.5
    endloop
  endfacet
  facet normal 0 0 1
    outer loop
      vertex 1 1 24.5
      vertex 0.617316 0.0761204 24.5
      vertex 1 0 24.5
    endloop
  endfacet
  facet normal 0 0 1
    outer loop
      vertex 1 1 24.5
      vertex 0.292892 0.292892 24.5
      vertex 0.617316 0.0761204 24.5
    endloop
  endfacet
  facet normal 0 0 1
    outer loop
      vertex 0 1 24.5
      vertex 1 3 24.5
      vertex 0 3 24.5
    endloop
  endfacet
  facet normal 0 0 1
    outer loop
      vertex 1 1 24.5
      vertex 0.0761204 0.617316 24.5
      vertex 0.292892 0.292892 24.5
    endloop
  endfacet
  facet normal -0 0 1
    outer loop
      vertex 1 1 24.5
      vertex 14 0 24.5
      vertex 14 1 24.5
    endloop
  endfacet
  facet normal 0 0 1
    outer loop
      vertex 14 0 24.5
      vertex 1 1 24.5
      vertex 1 0 24.5
    endloop
  endfacet
  facet normal 1 -0 0
    outer loop
      vertex 14 0 17
      vertex 14 1 14.5
      vertex 14 1 17
    endloop
  endfacet
  facet normal 1 0 0
    outer loop
      vertex 14 1 14.5
      vertex 14 0 17
      vertex 14 0 14.5
    endloop
  endfacet
  facet normal 0 0 -1
    outer loop
      vertex 15 1 17
      vertex 17 2.5 17
      vertex 17 0 17
    endloop
  endfacet
  facet normal -0 0 -1
    outer loop
      vertex 17 2.5 17
      vertex 15 1 17
      vertex 16 3.5 17
    endloop
  endfacet
  facet normal 0 0 -1
    outer loop
      vertex 14 0 17
      vertex 15 1 17
      vertex 17 0 17
    endloop
  endfacet
  facet normal -0 0 -1
    outer loop
      vertex 15 1 17
      vertex 14 0 17
      vertex 14 1 17
    endloop
  endfacet
  facet normal -0 0 -1
    outer loop
      vertex 16 3.5 17
      vertex 15 1 17
      vertex 15 3.5 17
    endloop
  endfacet
  facet normal 1 -0 0
    outer loop
      vertex 14 0 24.5
      vertex 14 1 22
      vertex 14 1 24.5
    endloop
  endfacet
  facet normal 1 0 0
    outer loop
      vertex 14 1 22
      vertex 14 0 24.5
      vertex 14 0 22
    endloop
  endfacet
  facet normal 0 0 1
    outer loop
      vertex 15 1 22
      vertex 17 2.5 22
      vertex 16 3.5 22
    endloop
  endfacet
  facet normal 0 0 1
    outer loop
      vertex 15 1 22
      vertex 16 3.5 22
      vertex 15 3.5 22
    endloop
  endfacet
  facet normal 0 0 1
    outer loop
      vertex 17 2.5 22
      vertex 15 1 22
      vertex 17 0 22
    endloop
  endfacet
  facet normal 0 0 1
    outer loop
      vertex 14 0 22
      vertex 15 1 22
      vertex 14 1 22
    endloop
  endfacet
  facet normal 0 0 1
    outer loop
      vertex 15 1 22
      vertex 14 0 22
      vertex 17 0 22
    endloop
  endfacet
endsolid OpenSCAD_Model
